<?xml version="1.0" encoding="UTF-8" standalone="no"?><!-- Generator: Gravit.io --><svg xmlns="http://www.w3.org/2000/svg" xmlns:xlink="http://www.w3.org/1999/xlink" style="isolation:isolate" viewBox="123.781 406.075 656.078 157.705" width="656.078pt" height="157.705pt"><defs><clipPath id="_clipPath_S0Q8p3FAZaLQbBNx9GnJSE3EVEIiPtWz"><rect x="123.781" y="406.075" width="656.078" height="157.705"/></clipPath></defs><g clip-path="url(#_clipPath_S0Q8p3FAZaLQbBNx9GnJSE3EVEIiPtWz)"><path d=" M 698.616 406.075 L 677.429 462.362 L 714.182 444.342 L 689.612 477.298 L 714.837 476.983 L 698.726 494.127 L 727.503 500.94 L 702.553 513.372 L 715.297 523.724 L 697.071 529.888 L 736.203 563.78 L 712.334 534.026 L 734.882 527.313 L 715.662 513.331 L 779.859 494.473 L 710.934 491.253 L 745.244 465.843 L 702.524 471.448 L 755.098 413.16 L 693.801 446.328 L 698.616 406.075" fill="rgb(255,255,255)"/><path d=" M 165.148 459.177 L 165.148 459.177 L 165.148 459.177 Q 166.047 459.177 166.652 459.704 L 166.652 459.704 L 166.652 459.704 Q 167.258 460.231 167.258 461.716 L 167.258 461.716 L 167.258 461.716 Q 167.258 462.771 166.984 464.47 L 166.984 464.47 L 166.984 464.47 Q 166.711 466.169 166.359 467.888 L 166.359 467.888 L 166.359 467.888 Q 166.008 469.606 165.676 471.032 L 165.676 471.032 L 165.676 471.032 Q 165.344 472.458 165.227 473.005 L 165.227 473.005 L 165.227 473.005 Q 165.148 473.356 164.934 474.216 L 164.934 474.216 L 164.934 474.216 Q 164.719 475.075 164.387 476.13 L 164.387 476.13 L 164.387 476.13 Q 164.055 477.185 163.684 478.317 L 163.684 478.317 L 163.684 478.317 Q 163.313 479.45 162.922 480.388 L 162.922 480.388 L 162.922 480.388 Q 162.531 481.325 162.16 481.931 L 162.16 481.931 L 162.16 481.931 Q 161.789 482.536 161.477 482.536 L 161.477 482.536 L 161.477 482.536 Q 161.281 482.536 161.145 482.341 L 161.145 482.341 L 161.145 482.341 Q 161.008 482.146 161.008 481.481 L 161.008 481.481 L 161.008 481.481 Q 161.008 480.817 161.125 479.626 L 161.125 479.626 L 161.125 479.626 Q 161.242 478.435 161.359 476.97 L 161.359 476.97 L 161.359 476.97 Q 161.477 475.505 161.594 473.923 L 161.594 473.923 L 161.594 473.923 Q 161.711 472.341 161.711 470.935 L 161.711 470.935 L 161.711 470.935 Q 161.711 468.786 161.262 467.556 L 161.262 467.556 L 161.262 467.556 Q 160.813 466.325 159.973 465.681 L 159.973 465.681 L 159.973 465.681 Q 159.133 465.036 157.941 464.86 L 157.941 464.86 L 157.941 464.86 Q 156.75 464.685 155.305 464.685 L 155.305 464.685 L 155.305 464.685 Q 153.391 464.685 151.066 464.938 L 151.066 464.938 L 151.066 464.938 Q 148.742 465.192 146.672 465.739 L 146.672 465.739 L 146.672 465.739 Q 144.953 466.169 144.426 467.224 L 144.426 467.224 L 144.426 467.224 Q 143.898 468.278 143.898 469.958 L 143.898 469.958 L 143.898 469.958 Q 143.898 470.231 143.938 472.146 L 143.938 472.146 L 143.938 472.146 Q 143.977 474.06 144.055 477.067 L 144.055 477.067 L 144.055 477.067 Q 144.133 480.075 144.23 483.962 L 144.23 483.962 L 144.23 483.962 Q 144.328 487.849 144.445 492.028 L 144.445 492.028 L 144.445 492.028 Q 145.539 491.95 146.672 491.813 L 146.672 491.813 L 146.672 491.813 Q 147.805 491.677 148.586 491.325 L 148.586 491.325 L 148.586 491.325 Q 149.406 490.974 149.973 490.407 L 149.973 490.407 L 149.973 490.407 Q 150.539 489.841 150.891 489.196 L 150.891 489.196 L 150.891 489.196 Q 151.242 488.552 151.457 487.888 L 151.457 487.888 L 151.457 487.888 Q 151.672 487.224 151.789 486.677 L 151.789 486.677 L 151.789 486.677 Q 152.414 484.177 152.766 483.142 L 152.766 483.142 L 152.766 483.142 Q 153.117 482.106 153.703 482.106 L 153.703 482.106 L 153.703 482.106 Q 154.445 482.106 154.445 483.552 L 154.445 483.552 L 154.445 483.552 Q 154.445 484.255 154.289 485.231 L 154.289 485.231 L 154.289 485.231 Q 154.133 486.208 153.918 487.438 L 153.918 487.438 L 153.918 487.438 Q 153.703 488.669 153.547 490.153 L 153.547 490.153 L 153.547 490.153 Q 153.391 491.638 153.391 493.317 L 153.391 493.317 L 153.391 493.317 Q 153.391 494.841 153.449 496.442 L 153.449 496.442 L 153.449 496.442 Q 153.508 498.044 153.586 499.411 L 153.586 499.411 L 153.586 499.411 Q 153.664 500.778 153.723 501.853 L 153.723 501.853 L 153.723 501.853 Q 153.781 502.927 153.781 503.396 L 153.781 503.396 L 153.781 503.396 Q 153.781 504.724 153.527 505.388 L 153.527 505.388 L 153.527 505.388 Q 153.273 506.052 152.844 506.052 L 152.844 506.052 L 152.844 506.052 Q 152.375 506.052 152.063 505.329 L 152.063 505.329 L 152.063 505.329 Q 151.75 504.606 151.711 502.536 L 151.711 502.536 L 151.711 502.536 Q 151.672 501.013 151.535 499.743 L 151.535 499.743 L 151.535 499.743 Q 151.398 498.474 151.027 497.517 L 151.027 497.517 L 151.027 497.517 Q 150.656 496.56 149.992 495.915 L 149.992 495.915 L 149.992 495.915 Q 149.328 495.271 148.273 494.919 L 148.273 494.919 L 148.273 494.919 Q 147.609 494.724 146.574 494.665 L 146.574 494.665 L 146.574 494.665 Q 145.539 494.606 144.523 494.606 L 144.523 494.606 L 144.523 494.606 Q 144.641 498.786 144.777 502.927 L 144.777 502.927 L 144.777 502.927 Q 144.914 507.067 145.031 510.603 L 145.031 510.603 L 145.031 510.603 Q 145.148 514.138 145.266 516.794 L 145.266 516.794 L 145.266 516.794 Q 145.383 519.45 145.461 520.661 L 145.461 520.661 L 145.461 520.661 Q 145.578 522.536 145.93 523.688 L 145.93 523.688 L 145.93 523.688 Q 146.281 524.841 146.867 525.544 L 146.867 525.544 L 146.867 525.544 Q 147.453 526.247 148.234 526.599 L 148.234 526.599 L 148.234 526.599 Q 149.016 526.95 150.031 527.224 L 150.031 527.224 L 150.031 527.224 Q 150.383 527.341 150.813 527.419 L 150.813 527.419 L 150.813 527.419 Q 151.242 527.497 151.652 527.653 L 151.652 527.653 L 151.652 527.653 Q 152.063 527.81 152.336 528.024 L 152.336 528.024 L 152.336 528.024 Q 152.609 528.239 152.609 528.591 L 152.609 528.591 L 152.609 528.591 Q 152.609 528.942 152.395 529.138 L 152.395 529.138 L 152.395 529.138 Q 152.18 529.333 151.848 529.431 L 151.848 529.431 L 151.848 529.431 Q 151.516 529.528 151.145 529.548 L 151.145 529.548 L 151.145 529.548 Q 150.773 529.567 150.422 529.567 L 150.422 529.567 L 150.422 529.567 Q 149.836 529.567 148.781 529.431 L 148.781 529.431 L 148.781 529.431 Q 147.727 529.294 146.359 529.157 L 146.359 529.157 L 146.359 529.157 Q 144.992 529.021 143.43 528.884 L 143.43 528.884 L 143.43 528.884 Q 141.867 528.747 140.266 528.747 L 140.266 528.747 L 140.266 528.747 Q 138.82 528.747 137.492 528.845 L 137.492 528.845 L 137.492 528.845 Q 136.164 528.942 134.758 529.079 L 134.758 529.079 L 134.758 529.079 Q 133.352 529.216 131.828 529.313 L 131.828 529.313 L 131.828 529.313 Q 130.305 529.411 128.508 529.411 L 128.508 529.411 L 128.508 529.411 Q 127.414 529.411 126.75 529.294 L 126.75 529.294 L 126.75 529.294 Q 126.086 529.177 125.734 529.001 L 125.734 529.001 L 125.734 529.001 Q 125.383 528.825 125.266 528.591 L 125.266 528.591 L 125.266 528.591 Q 125.148 528.356 125.148 528.122 L 125.148 528.122 L 125.148 528.122 Q 125.148 527.224 126.594 526.989 L 126.594 526.989 L 126.594 526.989 Q 126.945 526.95 127.727 526.892 L 127.727 526.892 L 127.727 526.892 Q 128.508 526.833 129.465 526.755 L 129.465 526.755 L 129.465 526.755 Q 130.422 526.677 131.438 526.54 L 131.438 526.54 L 131.438 526.54 Q 132.453 526.403 133.234 526.208 L 133.234 526.208 L 133.234 526.208 Q 134.055 525.974 134.875 525.563 L 134.875 525.563 L 134.875 525.563 Q 135.695 525.153 136.32 524.431 L 136.32 524.431 L 136.32 524.431 Q 136.945 523.708 137.336 522.517 L 137.336 522.517 L 137.336 522.517 Q 137.727 521.325 137.727 519.489 L 137.727 519.489 L 137.727 519.489 Q 137.727 516.364 137.473 512.302 L 137.473 512.302 L 137.473 512.302 Q 137.219 508.239 136.809 503.845 L 136.809 503.845 L 136.809 503.845 Q 136.398 499.45 135.871 495.017 L 135.871 495.017 L 135.871 495.017 Q 135.344 490.583 134.777 486.618 L 134.777 486.618 L 134.777 486.618 Q 134.211 482.653 133.664 479.509 L 133.664 479.509 L 133.664 479.509 Q 133.117 476.364 132.688 474.528 L 132.688 474.528 L 132.688 474.528 Q 132.336 473.044 131.672 472.126 L 131.672 472.126 L 131.672 472.126 Q 131.008 471.208 130.168 470.681 L 130.168 470.681 L 130.168 470.681 Q 129.328 470.153 128.332 469.899 L 128.332 469.899 L 128.332 469.899 Q 127.336 469.646 126.281 469.489 L 126.281 469.489 L 126.281 469.489 Q 125.148 469.294 124.465 468.981 L 124.465 468.981 L 124.465 468.981 Q 123.781 468.669 123.781 467.966 L 123.781 467.966 L 123.781 467.966 Q 123.781 467.302 124.309 467.067 L 124.309 467.067 L 124.309 467.067 Q 124.836 466.833 125.578 466.833 L 125.578 466.833 L 125.578 466.833 Q 128.898 466.833 133.898 466.364 L 133.898 466.364 L 133.898 466.364 Q 138.898 465.896 145.227 464.45 L 145.227 464.45 L 145.227 464.45 Q 150.109 463.356 153.41 462.38 L 153.41 462.38 L 153.41 462.38 Q 156.711 461.403 158.938 460.7 L 158.938 460.7 L 158.938 460.7 Q 161.164 459.997 162.59 459.587 L 162.59 459.587 L 162.59 459.587 Q 164.016 459.177 165.148 459.177 Z  M 178.039 463.864 L 178.039 463.864 L 178.039 463.864 Q 180.344 463.864 181.711 465.075 L 181.711 465.075 L 181.711 465.075 Q 183.078 466.286 183.078 468.513 L 183.078 468.513 L 183.078 468.513 Q 183.078 469.997 182.609 470.993 L 182.609 470.993 L 182.609 470.993 Q 182.141 471.989 181.398 472.595 L 181.398 472.595 L 181.398 472.595 Q 180.656 473.2 179.777 473.454 L 179.777 473.454 L 179.777 473.454 Q 178.898 473.708 178.039 473.708 L 178.039 473.708 L 178.039 473.708 Q 177.297 473.708 176.477 473.474 L 176.477 473.474 L 176.477 473.474 Q 175.656 473.239 174.953 472.673 L 174.953 472.673 L 174.953 472.673 Q 174.25 472.106 173.801 471.188 L 173.801 471.188 L 173.801 471.188 Q 173.352 470.271 173.352 468.903 L 173.352 468.903 L 173.352 468.903 Q 173.352 467.458 173.82 466.501 L 173.82 466.501 L 173.82 466.501 Q 174.289 465.544 174.992 464.958 L 174.992 464.958 L 174.992 464.958 Q 175.695 464.372 176.516 464.118 L 176.516 464.118 L 176.516 464.118 Q 177.336 463.864 178.039 463.864 Z  M 183.586 476.677 L 183.586 476.677 L 183.586 476.677 Q 183.977 476.677 183.977 477.575 L 183.977 477.575 L 183.977 477.575 Q 183.977 478.161 183.84 479.509 L 183.84 479.509 L 183.84 479.509 Q 183.703 480.856 183.508 482.38 L 183.508 482.38 L 183.508 482.38 Q 183.195 484.802 182.883 487.751 L 182.883 487.751 L 182.883 487.751 Q 182.57 490.7 182.277 493.806 L 182.277 493.806 L 182.277 493.806 Q 181.984 496.911 181.73 499.958 L 181.73 499.958 L 181.73 499.958 Q 181.477 503.005 181.281 505.603 L 181.281 505.603 L 181.281 505.603 Q 181.086 508.2 180.969 510.173 L 180.969 510.173 L 180.969 510.173 Q 180.852 512.146 180.852 513.083 L 180.852 513.083 L 180.852 513.083 Q 180.852 514.294 181.008 515.075 L 181.008 515.075 L 181.008 515.075 Q 181.164 515.856 181.398 516.364 L 181.398 516.364 L 181.398 516.364 Q 181.633 516.872 181.926 517.185 L 181.926 517.185 L 181.926 517.185 Q 182.219 517.497 182.531 517.731 L 182.531 517.731 L 182.531 517.731 Q 182.883 517.966 183.391 518.161 L 183.391 518.161 L 183.391 518.161 Q 183.898 518.356 184.484 518.532 L 184.484 518.532 L 184.484 518.532 Q 185.07 518.708 185.676 518.825 L 185.676 518.825 L 185.676 518.825 Q 186.281 518.942 186.789 518.981 L 186.789 518.981 L 186.789 518.981 Q 187.609 519.138 188.117 519.216 L 188.117 519.216 L 188.117 519.216 Q 188.625 519.294 188.625 519.724 L 188.625 519.724 L 188.625 519.724 Q 188.625 520.505 186.945 520.505 L 186.945 520.505 L 186.945 520.505 Q 185.773 520.505 184.602 520.329 L 184.602 520.329 L 184.602 520.329 Q 183.43 520.153 182.199 519.919 L 182.199 519.919 L 182.199 519.919 Q 180.969 519.685 179.641 519.509 L 179.641 519.509 L 179.641 519.509 Q 178.313 519.333 176.789 519.333 L 176.789 519.333 L 176.789 519.333 Q 175.383 519.333 174.25 519.411 L 174.25 519.411 L 174.25 519.411 Q 173.117 519.489 172.18 519.606 L 172.18 519.606 L 172.18 519.606 Q 171.242 519.724 170.422 519.802 L 170.422 519.802 L 170.422 519.802 Q 169.602 519.88 168.781 519.88 L 168.781 519.88 L 168.781 519.88 Q 168.117 519.88 167.57 519.704 L 167.57 519.704 L 167.57 519.704 Q 167.023 519.528 167.023 518.981 L 167.023 518.981 L 167.023 518.981 Q 167.023 518.435 167.629 518.22 L 167.629 518.22 L 167.629 518.22 Q 168.234 518.005 168.859 517.888 L 168.859 517.888 L 168.859 517.888 Q 169.641 517.731 170.383 517.536 L 170.383 517.536 L 170.383 517.536 Q 171.125 517.341 171.73 516.931 L 171.73 516.931 L 171.73 516.931 Q 172.336 516.521 172.746 515.837 L 172.746 515.837 L 172.746 515.837 Q 173.156 515.153 173.273 514.06 L 173.273 514.06 L 173.273 514.06 Q 173.43 511.911 173.508 509.685 L 173.508 509.685 L 173.508 509.685 Q 173.586 507.458 173.625 505.29 L 173.625 505.29 L 173.625 505.29 Q 173.664 503.122 173.664 501.071 L 173.664 501.071 L 173.664 501.071 Q 173.664 499.021 173.664 497.224 L 173.664 497.224 L 173.664 497.224 Q 173.664 495.075 173.664 493.298 L 173.664 493.298 L 173.664 493.298 Q 173.664 491.521 173.586 490.271 L 173.586 490.271 L 173.586 490.271 Q 173.508 488.278 173.137 487.146 L 173.137 487.146 L 173.137 487.146 Q 172.766 486.013 172.082 485.466 L 172.082 485.466 L 172.082 485.466 Q 171.398 484.919 170.344 484.743 L 170.344 484.743 L 170.344 484.743 Q 169.289 484.567 167.805 484.45 L 167.805 484.45 L 167.805 484.45 Q 167.375 484.372 167.121 484.177 L 167.121 484.177 L 167.121 484.177 Q 166.867 483.981 166.867 483.552 L 166.867 483.552 L 166.867 483.552 Q 166.867 482.81 168.039 482.692 L 168.039 482.692 L 168.039 482.692 Q 168.625 482.653 169.523 482.556 L 169.523 482.556 L 169.523 482.556 Q 170.422 482.458 171.613 482.263 L 171.613 482.263 L 171.613 482.263 Q 172.805 482.067 174.211 481.696 L 174.211 481.696 L 174.211 481.696 Q 175.617 481.325 177.18 480.661 L 177.18 480.661 L 177.18 480.661 Q 178.898 479.958 180.012 479.255 L 180.012 479.255 L 180.012 479.255 Q 181.125 478.552 181.828 477.985 L 181.828 477.985 L 181.828 477.985 Q 182.531 477.419 182.922 477.048 L 182.922 477.048 L 182.922 477.048 Q 183.313 476.677 183.586 476.677 Z  M 201.242 476.208 L 201.242 476.208 L 201.242 476.208 Q 201.555 476.208 201.867 477.204 L 201.867 477.204 L 201.867 477.204 Q 202.18 478.2 202.492 479.802 L 202.492 479.802 L 202.492 479.802 Q 202.805 481.403 203.117 483.493 L 203.117 483.493 L 203.117 483.493 Q 203.43 485.583 203.742 487.731 L 203.742 487.731 L 205.148 497.575 L 205.148 497.575 Q 205.344 496.286 205.832 494.606 L 205.832 494.606 L 205.832 494.606 Q 206.32 492.927 207.141 491.13 L 207.141 491.13 L 207.141 491.13 Q 207.961 489.333 209.133 487.614 L 209.133 487.614 L 209.133 487.614 Q 210.305 485.896 211.848 484.528 L 211.848 484.528 L 211.848 484.528 Q 213.391 483.161 215.324 482.321 L 215.324 482.321 L 215.324 482.321 Q 217.258 481.481 219.641 481.481 L 219.641 481.481 L 219.641 481.481 Q 222.57 481.481 224.719 482.595 L 224.719 482.595 L 224.719 482.595 Q 226.867 483.708 228.273 485.681 L 228.273 485.681 L 228.273 485.681 Q 229.68 487.653 230.344 490.388 L 230.344 490.388 L 230.344 490.388 Q 231.008 493.122 231.008 496.364 L 231.008 496.364 L 231.008 496.364 Q 231.008 499.294 230.676 502.243 L 230.676 502.243 L 230.676 502.243 Q 230.344 505.192 229.973 508.044 L 229.973 508.044 L 229.973 508.044 Q 229.602 510.896 229.27 513.552 L 229.27 513.552 L 229.27 513.552 Q 228.938 516.208 228.938 518.513 L 228.938 518.513 L 228.938 518.513 Q 228.938 519.88 229.172 520.896 L 229.172 520.896 L 229.172 520.896 Q 229.406 521.911 229.875 522.771 L 229.875 522.771 L 229.875 522.771 Q 230.422 523.591 231.223 524.196 L 231.223 524.196 L 231.223 524.196 Q 232.023 524.802 232.746 525.329 L 232.746 525.329 L 232.746 525.329 Q 233.469 525.856 233.996 526.384 L 233.996 526.384 L 233.996 526.384 Q 234.523 526.911 234.523 527.497 L 234.523 527.497 L 234.523 527.497 Q 234.523 527.849 234.328 528.103 L 234.328 528.103 L 234.328 528.103 Q 234.133 528.356 233.664 528.356 L 233.664 528.356 L 233.664 528.356 Q 232.961 528.356 232.121 527.829 L 232.121 527.829 L 232.121 527.829 Q 231.281 527.302 230.051 526.501 L 230.051 526.501 L 230.051 526.501 Q 228.82 525.7 227.102 524.782 L 227.102 524.782 L 227.102 524.782 Q 225.383 523.864 222.922 523.083 L 222.922 523.083 L 222.922 523.083 Q 221.086 522.458 219.23 522.106 L 219.23 522.106 L 219.23 522.106 Q 217.375 521.755 214.914 521.638 L 214.914 521.638 L 214.914 521.638 Q 213.547 521.521 213.547 520.856 L 213.547 520.856 L 213.547 520.856 Q 213.547 520.114 214.445 520.114 L 214.445 520.114 L 214.445 520.114 Q 214.992 520.114 215.969 520.114 L 215.969 520.114 L 215.969 520.114 Q 216.945 520.114 217.961 520.036 L 217.961 520.036 L 217.961 520.036 Q 219.523 519.919 220.539 519.079 L 220.539 519.079 L 220.539 519.079 Q 221.555 518.239 222.063 515.974 L 222.063 515.974 L 222.063 515.974 Q 222.219 515.075 222.375 513.688 L 222.375 513.688 L 222.375 513.688 Q 222.531 512.302 222.648 510.72 L 222.648 510.72 L 222.648 510.72 Q 222.766 509.138 222.844 507.497 L 222.844 507.497 L 222.844 507.497 Q 222.922 505.856 222.922 504.372 L 222.922 504.372 L 222.922 504.372 Q 222.922 503.044 222.883 501.306 L 222.883 501.306 L 222.883 501.306 Q 222.844 499.567 222.629 497.692 L 222.629 497.692 L 222.629 497.692 Q 222.414 495.817 221.965 494.021 L 221.965 494.021 L 221.965 494.021 Q 221.516 492.224 220.656 490.817 L 220.656 490.817 L 220.656 490.817 Q 219.797 489.411 218.469 488.532 L 218.469 488.532 L 218.469 488.532 Q 217.141 487.653 215.227 487.653 L 215.227 487.653 L 215.227 487.653 Q 213.586 487.653 212.238 488.474 L 212.238 488.474 L 212.238 488.474 Q 210.891 489.294 209.836 490.759 L 209.836 490.759 L 209.836 490.759 Q 208.781 492.224 208.039 494.216 L 208.039 494.216 L 208.039 494.216 Q 207.297 496.208 206.906 498.591 L 206.906 498.591 L 206.906 498.591 Q 206.477 501.013 206.34 503.571 L 206.34 503.571 L 206.34 503.571 Q 206.203 506.13 206.203 508.669 L 206.203 508.669 L 206.203 508.669 Q 206.203 510.817 206.359 512.79 L 206.359 512.79 L 206.359 512.79 Q 206.516 514.763 206.789 516.423 L 206.789 516.423 L 206.789 516.423 Q 207.063 518.083 207.453 519.372 L 207.453 519.372 L 207.453 519.372 Q 207.844 520.661 208.352 521.403 L 208.352 521.403 L 208.352 521.403 Q 209.094 522.419 209.953 522.927 L 209.953 522.927 L 209.953 522.927 Q 210.813 523.435 211.398 523.63 L 211.398 523.63 L 211.398 523.63 Q 212.18 523.864 212.512 524.04 L 212.512 524.04 L 212.512 524.04 Q 212.844 524.216 212.844 524.528 L 212.844 524.528 L 212.844 524.528 Q 212.844 524.763 212.473 524.958 L 212.473 524.958 L 212.473 524.958 Q 212.102 525.153 211.242 525.153 L 211.242 525.153 L 211.242 525.153 Q 210.422 525.153 209.445 525.017 L 209.445 525.017 L 209.445 525.017 Q 208.469 524.88 207.414 524.724 L 207.414 524.724 L 207.414 524.724 Q 206.359 524.567 205.227 524.431 L 205.227 524.431 L 205.227 524.431 Q 204.094 524.294 203 524.294 L 203 524.294 L 203 524.294 Q 201.906 524.294 200.773 524.372 L 200.773 524.372 L 200.773 524.372 Q 199.641 524.45 198.605 524.528 L 198.605 524.528 L 198.605 524.528 Q 197.57 524.606 196.711 524.685 L 196.711 524.685 L 196.711 524.685 Q 195.852 524.763 195.344 524.763 L 195.344 524.763 L 195.344 524.763 Q 193.82 524.763 193.82 523.786 L 193.82 523.786 L 193.82 523.786 Q 193.82 523.435 194.074 523.181 L 194.074 523.181 L 194.074 523.181 Q 194.328 522.927 194.992 522.849 L 194.992 522.849 L 194.992 522.849 Q 195.539 522.81 195.969 522.771 L 195.969 522.771 L 195.969 522.771 Q 196.398 522.731 196.848 522.712 L 196.848 522.712 L 196.848 522.712 Q 197.297 522.692 197.785 522.653 L 197.785 522.653 L 197.785 522.653 Q 198.273 522.614 198.938 522.536 L 198.938 522.536 L 198.938 522.536 Q 200.188 522.341 200.637 521.618 L 200.637 521.618 L 200.637 521.618 Q 201.086 520.896 201.086 519.646 L 201.086 519.646 L 201.086 519.646 Q 201.086 517.497 200.715 514.411 L 200.715 514.411 L 200.715 514.411 Q 200.344 511.325 199.719 507.614 L 199.719 507.614 L 199.719 507.614 Q 199.094 503.903 198.215 499.743 L 198.215 499.743 L 198.215 499.743 Q 197.336 495.583 196.359 491.247 L 196.359 491.247 L 196.359 491.247 Q 195.891 489.021 195.285 487.927 L 195.285 487.927 L 195.285 487.927 Q 194.68 486.833 193.547 486.833 L 193.547 486.833 L 193.547 486.833 Q 192.961 486.833 192.336 487.048 L 192.336 487.048 L 192.336 487.048 Q 191.711 487.263 191.105 487.517 L 191.105 487.517 L 191.105 487.517 Q 190.5 487.771 189.953 487.985 L 189.953 487.985 L 189.953 487.985 Q 189.406 488.2 188.938 488.2 L 188.938 488.2 L 188.938 488.2 Q 188.195 488.2 188.195 487.575 L 188.195 487.575 L 188.195 487.575 Q 188.195 487.067 188.605 486.853 L 188.605 486.853 L 188.605 486.853 Q 189.016 486.638 189.484 486.442 L 189.484 486.442 L 189.484 486.442 Q 190.578 486.013 191.848 485.349 L 191.848 485.349 L 191.848 485.349 Q 193.117 484.685 194.602 483.552 L 194.602 483.552 L 194.602 483.552 Q 196.047 482.419 197.18 481.13 L 197.18 481.13 L 197.18 481.13 Q 198.313 479.841 199.133 478.747 L 199.133 478.747 L 199.133 478.747 Q 199.953 477.653 200.461 476.931 L 200.461 476.931 L 200.461 476.931 Q 200.969 476.208 201.242 476.208 Z  M 246.672 498.356 L 246.672 498.356 L 246.672 498.356 Q 245.227 498.356 243.957 497.81 L 243.957 497.81 L 243.957 497.81 Q 242.688 497.263 241.75 496.169 L 241.75 496.169 L 241.75 496.169 Q 240.813 495.075 240.266 493.435 L 240.266 493.435 L 240.266 493.435 Q 239.719 491.794 239.719 489.567 L 239.719 489.567 L 239.719 489.567 Q 239.719 487.146 240.402 484.821 L 240.402 484.821 L 240.402 484.821 Q 241.086 482.497 242.531 480.681 L 242.531 480.681 L 242.531 480.681 Q 243.977 478.864 246.223 477.771 L 246.223 477.771 L 246.223 477.771 Q 248.469 476.677 251.633 476.677 L 251.633 476.677 L 251.633 476.677 Q 254.25 476.677 256.262 477.36 L 256.262 477.36 L 256.262 477.36 Q 258.273 478.044 259.797 479.196 L 259.797 479.196 L 259.797 479.196 Q 261.32 480.349 262.395 481.872 L 262.395 481.872 L 262.395 481.872 Q 263.469 483.396 264.211 485.056 L 264.211 485.056 L 264.211 485.056 Q 264.953 486.716 265.441 488.415 L 265.441 488.415 L 265.441 488.415 Q 265.93 490.114 266.281 491.638 L 266.281 491.638 L 266.281 491.638 Q 266.477 492.497 266.77 494.079 L 266.77 494.079 L 266.77 494.079 Q 267.063 495.661 267.414 497.731 L 267.414 497.731 L 267.414 497.731 Q 267.766 499.802 268.156 502.165 L 268.156 502.165 L 268.156 502.165 Q 268.547 504.528 268.938 506.95 L 268.938 506.95 L 268.938 506.95 Q 269.328 509.372 269.699 511.657 L 269.699 511.657 L 269.699 511.657 Q 270.07 513.942 270.383 515.837 L 270.383 515.837 L 270.383 515.837 Q 270.695 517.731 270.91 519.079 L 270.91 519.079 L 270.91 519.079 Q 271.125 520.427 271.242 520.935 L 271.242 520.935 L 271.242 520.935 Q 271.477 522.146 271.77 523.396 L 271.77 523.396 L 271.77 523.396 Q 272.063 524.646 272.512 525.681 L 272.512 525.681 L 272.512 525.681 Q 272.961 526.716 273.625 527.38 L 273.625 527.38 L 273.625 527.38 Q 274.289 528.044 275.305 528.044 L 275.305 528.044 L 275.305 528.044 Q 275.891 528.044 276.32 527.771 L 276.32 527.771 L 276.32 527.771 Q 276.75 527.497 277.004 527.028 L 277.004 527.028 L 277.004 527.028 Q 277.258 526.56 277.375 525.974 L 277.375 525.974 L 277.375 525.974 Q 277.492 525.388 277.492 524.763 L 277.492 524.763 L 277.492 524.763 Q 277.492 524.021 277.453 523.259 L 277.453 523.259 L 277.453 523.259 Q 277.414 522.497 277.414 521.95 L 277.414 521.95 L 277.414 521.95 Q 277.414 521.364 277.57 520.935 L 277.57 520.935 L 277.57 520.935 Q 277.727 520.505 278.195 520.505 L 278.195 520.505 L 278.195 520.505 Q 278.625 520.505 278.879 520.993 L 278.879 520.993 L 278.879 520.993 Q 279.133 521.481 279.27 522.126 L 279.27 522.126 L 279.27 522.126 Q 279.406 522.771 279.445 523.415 L 279.445 523.415 L 279.445 523.415 Q 279.484 524.06 279.484 524.372 L 279.484 524.372 L 279.484 524.372 Q 279.484 525.739 279.25 527.458 L 279.25 527.458 L 279.25 527.458 Q 279.016 529.177 278.273 530.778 L 278.273 530.778 L 278.273 530.778 Q 277.57 532.419 275.93 533.474 L 275.93 533.474 L 275.93 533.474 Q 274.289 534.528 272.141 534.528 L 272.141 534.528 L 272.141 534.528 Q 270.266 534.528 268.918 533.981 L 268.918 533.981 L 268.918 533.981 Q 267.57 533.435 266.613 532.614 L 266.613 532.614 L 266.613 532.614 Q 265.656 531.794 265.012 530.856 L 265.012 530.856 L 265.012 530.856 Q 264.367 529.919 263.977 529.099 L 263.977 529.099 L 263.977 529.099 Q 262.883 526.989 262.316 524.47 L 262.316 524.47 L 262.316 524.47 Q 261.75 521.95 261.398 519.646 L 261.398 519.646 L 261.398 519.646 Q 260.813 520.622 259.621 522.067 L 259.621 522.067 L 259.621 522.067 Q 258.43 523.513 256.672 524.841 L 256.672 524.841 L 256.672 524.841 Q 254.914 526.169 252.609 527.106 L 252.609 527.106 L 252.609 527.106 Q 250.305 528.044 247.492 528.044 L 247.492 528.044 L 247.492 528.044 Q 244.367 528.044 242.16 527.165 L 242.16 527.165 L 242.16 527.165 Q 239.953 526.286 238.547 524.782 L 238.547 524.782 L 238.547 524.782 Q 237.141 523.278 236.477 521.267 L 236.477 521.267 L 236.477 521.267 Q 235.813 519.255 235.813 516.989 L 235.813 516.989 L 235.813 516.989 Q 235.813 514.567 236.711 512.106 L 236.711 512.106 L 236.711 512.106 Q 237.609 509.646 239.66 507.653 L 239.66 507.653 L 239.66 507.653 Q 241.711 505.661 245.012 504.411 L 245.012 504.411 L 245.012 504.411 Q 248.313 503.161 253.078 503.161 L 253.078 503.161 L 253.078 503.161 Q 254.172 503.161 255.207 503.259 L 255.207 503.259 L 255.207 503.259 Q 256.242 503.356 257.082 503.474 L 257.082 503.474 L 257.082 503.474 Q 257.922 503.591 258.527 503.708 L 258.527 503.708 L 258.527 503.708 Q 259.133 503.825 259.406 503.864 L 259.406 503.864 L 259.406 503.864 Q 259.172 500.505 258.82 497.146 L 258.82 497.146 L 258.82 497.146 Q 258.664 495.739 258.488 494.177 L 258.488 494.177 L 258.488 494.177 Q 258.313 492.614 258.117 491.032 L 258.117 491.032 L 258.117 491.032 Q 257.922 489.45 257.688 487.927 L 257.688 487.927 L 257.688 487.927 Q 257.453 486.403 257.18 485.075 L 257.18 485.075 L 257.18 485.075 Q 256.555 482.067 254.738 480.29 L 254.738 480.29 L 254.738 480.29 Q 252.922 478.513 250.109 478.513 L 250.109 478.513 L 250.109 478.513 Q 248.586 478.513 247.434 479.06 L 247.434 479.06 L 247.434 479.06 Q 246.281 479.606 245.48 480.466 L 245.48 480.466 L 245.48 480.466 Q 244.68 481.325 244.289 482.399 L 244.289 482.399 L 244.289 482.399 Q 243.898 483.474 243.898 484.528 L 243.898 484.528 L 243.898 484.528 Q 243.898 485.661 244.445 486.423 L 244.445 486.423 L 244.445 486.423 Q 244.992 487.185 245.793 487.771 L 245.793 487.771 L 245.793 487.771 Q 246.594 488.356 247.531 488.884 L 247.531 488.884 L 247.531 488.884 Q 248.469 489.411 249.27 490.095 L 249.27 490.095 L 249.27 490.095 Q 250.07 490.778 250.617 491.735 L 250.617 491.735 L 250.617 491.735 Q 251.164 492.692 251.164 494.138 L 251.164 494.138 L 251.164 494.138 Q 251.164 496.052 249.855 497.204 L 249.855 497.204 L 249.855 497.204 Q 248.547 498.356 246.672 498.356 Z  M 259.719 506.286 L 259.719 506.286 L 259.719 506.286 Q 259.445 506.169 258.762 505.993 L 258.762 505.993 L 258.762 505.993 Q 258.078 505.817 257.141 505.642 L 257.141 505.642 L 257.141 505.642 Q 256.203 505.466 255.129 505.349 L 255.129 505.349 L 255.129 505.349 Q 254.055 505.231 253 505.231 L 253 505.231 L 253 505.231 Q 250.93 505.231 249.152 505.817 L 249.152 505.817 L 249.152 505.817 Q 247.375 506.403 246.086 507.556 L 246.086 507.556 L 246.086 507.556 Q 244.797 508.708 244.055 510.446 L 244.055 510.446 L 244.055 510.446 Q 243.313 512.185 243.313 514.45 L 243.313 514.45 L 243.313 514.45 Q 243.313 516.521 243.996 517.868 L 243.996 517.868 L 243.996 517.868 Q 244.68 519.216 245.754 519.997 L 245.754 519.997 L 245.754 519.997 Q 246.828 520.778 248.137 521.091 L 248.137 521.091 L 248.137 521.091 Q 249.445 521.403 250.695 521.403 L 250.695 521.403 L 250.695 521.403 Q 252.688 521.403 254.484 520.778 L 254.484 520.778 L 254.484 520.778 Q 256.281 520.153 257.648 519.333 L 257.648 519.333 L 257.648 519.333 Q 259.016 518.513 259.875 517.731 L 259.875 517.731 L 259.875 517.731 Q 260.734 516.95 260.93 516.677 L 260.93 516.677 L 260.93 516.677 Q 260.656 514.06 260.422 511.911 L 260.422 511.911 L 260.422 511.911 Q 260.305 510.974 260.207 510.075 L 260.207 510.075 L 260.207 510.075 Q 260.109 509.177 260.012 508.396 L 260.012 508.396 L 260.012 508.396 Q 259.914 507.614 259.836 507.067 L 259.836 507.067 L 259.836 507.067 Q 259.758 506.521 259.719 506.286 Z  M 288.664 476.208 L 288.664 476.208 L 288.664 476.208 Q 288.977 476.208 289.289 477.204 L 289.289 477.204 L 289.289 477.204 Q 289.602 478.2 289.914 479.802 L 289.914 479.802 L 289.914 479.802 Q 290.227 481.403 290.539 483.493 L 290.539 483.493 L 290.539 483.493 Q 290.852 485.583 291.164 487.731 L 291.164 487.731 L 292.57 497.575 L 292.57 497.575 Q 292.766 496.286 293.254 494.606 L 293.254 494.606 L 293.254 494.606 Q 293.742 492.927 294.563 491.13 L 294.563 491.13 L 294.563 491.13 Q 295.383 489.333 296.555 487.614 L 296.555 487.614 L 296.555 487.614 Q 297.727 485.896 299.27 484.528 L 299.27 484.528 L 299.27 484.528 Q 300.813 483.161 302.746 482.321 L 302.746 482.321 L 302.746 482.321 Q 304.68 481.481 307.063 481.481 L 307.063 481.481 L 307.063 481.481 Q 309.992 481.481 312.141 482.595 L 312.141 482.595 L 312.141 482.595 Q 314.289 483.708 315.695 485.681 L 315.695 485.681 L 315.695 485.681 Q 317.102 487.653 317.766 490.388 L 317.766 490.388 L 317.766 490.388 Q 318.43 493.122 318.43 496.364 L 318.43 496.364 L 318.43 496.364 Q 318.43 499.294 318.098 502.243 L 318.098 502.243 L 318.098 502.243 Q 317.766 505.192 317.395 508.044 L 317.395 508.044 L 317.395 508.044 Q 317.023 510.896 316.691 513.552 L 316.691 513.552 L 316.691 513.552 Q 316.359 516.208 316.359 518.513 L 316.359 518.513 L 316.359 518.513 Q 316.359 519.88 316.594 520.896 L 316.594 520.896 L 316.594 520.896 Q 316.828 521.911 317.297 522.771 L 317.297 522.771 L 317.297 522.771 Q 317.844 523.591 318.645 524.196 L 318.645 524.196 L 318.645 524.196 Q 319.445 524.802 320.168 525.329 L 320.168 525.329 L 320.168 525.329 Q 320.891 525.856 321.418 526.384 L 321.418 526.384 L 321.418 526.384 Q 321.945 526.911 321.945 527.497 L 321.945 527.497 L 321.945 527.497 Q 321.945 527.849 321.75 528.103 L 321.75 528.103 L 321.75 528.103 Q 321.555 528.356 321.086 528.356 L 321.086 528.356 L 321.086 528.356 Q 320.383 528.356 319.543 527.829 L 319.543 527.829 L 319.543 527.829 Q 318.703 527.302 317.473 526.501 L 317.473 526.501 L 317.473 526.501 Q 316.242 525.7 314.523 524.782 L 314.523 524.782 L 314.523 524.782 Q 312.805 523.864 310.344 523.083 L 310.344 523.083 L 310.344 523.083 Q 308.508 522.458 306.652 522.106 L 306.652 522.106 L 306.652 522.106 Q 304.797 521.755 302.336 521.638 L 302.336 521.638 L 302.336 521.638 Q 300.969 521.521 300.969 520.856 L 300.969 520.856 L 300.969 520.856 Q 300.969 520.114 301.867 520.114 L 301.867 520.114 L 301.867 520.114 Q 302.414 520.114 303.391 520.114 L 303.391 520.114 L 303.391 520.114 Q 304.367 520.114 305.383 520.036 L 305.383 520.036 L 305.383 520.036 Q 306.945 519.919 307.961 519.079 L 307.961 519.079 L 307.961 519.079 Q 308.977 518.239 309.484 515.974 L 309.484 515.974 L 309.484 515.974 Q 309.641 515.075 309.797 513.688 L 309.797 513.688 L 309.797 513.688 Q 309.953 512.302 310.07 510.72 L 310.07 510.72 L 310.07 510.72 Q 310.188 509.138 310.266 507.497 L 310.266 507.497 L 310.266 507.497 Q 310.344 505.856 310.344 504.372 L 310.344 504.372 L 310.344 504.372 Q 310.344 503.044 310.305 501.306 L 310.305 501.306 L 310.305 501.306 Q 310.266 499.567 310.051 497.692 L 310.051 497.692 L 310.051 497.692 Q 309.836 495.817 309.387 494.021 L 309.387 494.021 L 309.387 494.021 Q 308.938 492.224 308.078 490.817 L 308.078 490.817 L 308.078 490.817 Q 307.219 489.411 305.891 488.532 L 305.891 488.532 L 305.891 488.532 Q 304.563 487.653 302.648 487.653 L 302.648 487.653 L 302.648 487.653 Q 301.008 487.653 299.66 488.474 L 299.66 488.474 L 299.66 488.474 Q 298.313 489.294 297.258 490.759 L 297.258 490.759 L 297.258 490.759 Q 296.203 492.224 295.461 494.216 L 295.461 494.216 L 295.461 494.216 Q 294.719 496.208 294.328 498.591 L 294.328 498.591 L 294.328 498.591 Q 293.898 501.013 293.762 503.571 L 293.762 503.571 L 293.762 503.571 Q 293.625 506.13 293.625 508.669 L 293.625 508.669 L 293.625 508.669 Q 293.625 510.817 293.781 512.79 L 293.781 512.79 L 293.781 512.79 Q 293.938 514.763 294.211 516.423 L 294.211 516.423 L 294.211 516.423 Q 294.484 518.083 294.875 519.372 L 294.875 519.372 L 294.875 519.372 Q 295.266 520.661 295.773 521.403 L 295.773 521.403 L 295.773 521.403 Q 296.516 522.419 297.375 522.927 L 297.375 522.927 L 297.375 522.927 Q 298.234 523.435 298.82 523.63 L 298.82 523.63 L 298.82 523.63 Q 299.602 523.864 299.934 524.04 L 299.934 524.04 L 299.934 524.04 Q 300.266 524.216 300.266 524.528 L 300.266 524.528 L 300.266 524.528 Q 300.266 524.763 299.895 524.958 L 299.895 524.958 L 299.895 524.958 Q 299.523 525.153 298.664 525.153 L 298.664 525.153 L 298.664 525.153 Q 297.844 525.153 296.867 525.017 L 296.867 525.017 L 296.867 525.017 Q 295.891 524.88 294.836 524.724 L 294.836 524.724 L 294.836 524.724 Q 293.781 524.567 292.648 524.431 L 292.648 524.431 L 292.648 524.431 Q 291.516 524.294 290.422 524.294 L 290.422 524.294 L 290.422 524.294 Q 289.328 524.294 288.195 524.372 L 288.195 524.372 L 288.195 524.372 Q 287.063 524.45 286.027 524.528 L 286.027 524.528 L 286.027 524.528 Q 284.992 524.606 284.133 524.685 L 284.133 524.685 L 284.133 524.685 Q 283.273 524.763 282.766 524.763 L 282.766 524.763 L 282.766 524.763 Q 281.242 524.763 281.242 523.786 L 281.242 523.786 L 281.242 523.786 Q 281.242 523.435 281.496 523.181 L 281.496 523.181 L 281.496 523.181 Q 281.75 522.927 282.414 522.849 L 282.414 522.849 L 282.414 522.849 Q 282.961 522.81 283.391 522.771 L 283.391 522.771 L 283.391 522.771 Q 283.82 522.731 284.27 522.712 L 284.27 522.712 L 284.27 522.712 Q 284.719 522.692 285.207 522.653 L 285.207 522.653 L 285.207 522.653 Q 285.695 522.614 286.359 522.536 L 286.359 522.536 L 286.359 522.536 Q 287.609 522.341 288.059 521.618 L 288.059 521.618 L 288.059 521.618 Q 288.508 520.896 288.508 519.646 L 288.508 519.646 L 288.508 519.646 Q 288.508 517.497 288.137 514.411 L 288.137 514.411 L 288.137 514.411 Q 287.766 511.325 287.141 507.614 L 287.141 507.614 L 287.141 507.614 Q 286.516 503.903 285.637 499.743 L 285.637 499.743 L 285.637 499.743 Q 284.758 495.583 283.781 491.247 L 283.781 491.247 L 283.781 491.247 Q 283.313 489.021 282.707 487.927 L 282.707 487.927 L 282.707 487.927 Q 282.102 486.833 280.969 486.833 L 280.969 486.833 L 280.969 486.833 Q 280.383 486.833 279.758 487.048 L 279.758 487.048 L 279.758 487.048 Q 279.133 487.263 278.527 487.517 L 278.527 487.517 L 278.527 487.517 Q 277.922 487.771 277.375 487.985 L 277.375 487.985 L 277.375 487.985 Q 276.828 488.2 276.359 488.2 L 276.359 488.2 L 276.359 488.2 Q 275.617 488.2 275.617 487.575 L 275.617 487.575 L 275.617 487.575 Q 275.617 487.067 276.027 486.853 L 276.027 486.853 L 276.027 486.853 Q 276.438 486.638 276.906 486.442 L 276.906 486.442 L 276.906 486.442 Q 278 486.013 279.27 485.349 L 279.27 485.349 L 279.27 485.349 Q 280.539 484.685 282.023 483.552 L 282.023 483.552 L 282.023 483.552 Q 283.469 482.419 284.602 481.13 L 284.602 481.13 L 284.602 481.13 Q 285.734 479.841 286.555 478.747 L 286.555 478.747 L 286.555 478.747 Q 287.375 477.653 287.883 476.931 L 287.883 476.931 L 287.883 476.931 Q 288.391 476.208 288.664 476.208 Z  M 348.43 492.106 L 348.43 492.106 L 348.43 492.106 Q 347.18 492.106 346.105 491.716 L 346.105 491.716 L 346.105 491.716 Q 345.031 491.325 344.25 490.524 L 344.25 490.524 L 344.25 490.524 Q 343.469 489.724 343.02 488.493 L 343.02 488.493 L 343.02 488.493 Q 342.57 487.263 342.57 485.622 L 342.57 485.622 L 342.57 485.622 Q 342.57 484.45 342.434 483.356 L 342.434 483.356 L 342.434 483.356 Q 342.297 482.263 341.867 481.403 L 341.867 481.403 L 341.867 481.403 Q 341.438 480.544 340.637 480.017 L 340.637 480.017 L 340.637 480.017 Q 339.836 479.489 338.508 479.489 L 338.508 479.489 L 338.508 479.489 Q 336.906 479.489 335.344 480.485 L 335.344 480.485 L 335.344 480.485 Q 333.781 481.481 332.531 483.474 L 332.531 483.474 L 332.531 483.474 Q 331.281 485.466 330.5 488.435 L 330.5 488.435 L 330.5 488.435 Q 329.719 491.403 329.719 495.31 L 329.719 495.31 L 329.719 495.31 Q 329.719 500.075 330.676 503.806 L 330.676 503.806 L 330.676 503.806 Q 331.633 507.536 333.449 510.134 L 333.449 510.134 L 333.449 510.134 Q 335.266 512.731 337.883 514.099 L 337.883 514.099 L 337.883 514.099 Q 340.5 515.466 343.781 515.466 L 343.781 515.466 L 343.781 515.466 Q 345.93 515.466 347.629 514.724 L 347.629 514.724 L 347.629 514.724 Q 349.328 513.981 350.461 512.731 L 350.461 512.731 L 350.461 512.731 Q 351.594 511.481 352.199 509.782 L 352.199 509.782 L 352.199 509.782 Q 352.805 508.083 352.805 506.208 L 352.805 506.208 L 352.805 506.208 Q 352.805 504.216 352.316 502.849 L 352.316 502.849 L 352.316 502.849 Q 351.828 501.481 351.262 500.524 L 351.262 500.524 L 351.262 500.524 Q 350.695 499.567 350.207 498.923 L 350.207 498.923 L 350.207 498.923 Q 349.719 498.278 349.719 497.81 L 349.719 497.81 L 349.719 497.81 Q 349.719 497.224 350.344 497.224 L 350.344 497.224 L 350.344 497.224 Q 350.93 497.224 351.848 497.849 L 351.848 497.849 L 351.848 497.849 Q 352.766 498.474 353.645 499.665 L 353.645 499.665 L 353.645 499.665 Q 354.523 500.856 355.148 502.575 L 355.148 502.575 L 355.148 502.575 Q 355.773 504.294 355.773 506.442 L 355.773 506.442 L 355.773 506.442 Q 355.773 509.958 354.621 512.673 L 354.621 512.673 L 354.621 512.673 Q 353.469 515.388 351.438 517.243 L 351.438 517.243 L 351.438 517.243 Q 349.406 519.099 346.594 520.056 L 346.594 520.056 L 346.594 520.056 Q 343.781 521.013 340.5 521.013 L 340.5 521.013 L 340.5 521.013 Q 336.672 521.013 333.508 519.567 L 333.508 519.567 L 333.508 519.567 Q 330.344 518.122 328.059 515.407 L 328.059 515.407 L 328.059 515.407 Q 325.773 512.692 324.504 508.806 L 324.504 508.806 L 324.504 508.806 Q 323.234 504.919 323.234 500.036 L 323.234 500.036 L 323.234 500.036 Q 323.234 497.692 323.664 495.388 L 323.664 495.388 L 323.664 495.388 Q 324.094 493.083 324.836 490.993 L 324.836 490.993 L 324.836 490.993 Q 325.578 488.903 326.555 487.106 L 326.555 487.106 L 326.555 487.106 Q 327.531 485.31 328.664 483.942 L 328.664 483.942 L 328.664 483.942 Q 330.344 481.911 332.102 480.524 L 332.102 480.524 L 332.102 480.524 Q 333.859 479.138 335.676 478.298 L 335.676 478.298 L 335.676 478.298 Q 337.492 477.458 339.426 477.106 L 339.426 477.106 L 339.426 477.106 Q 341.359 476.755 343.391 476.755 L 343.391 476.755 L 343.391 476.755 Q 345.617 476.755 347.57 477.38 L 347.57 477.38 L 347.57 477.38 Q 349.523 478.005 350.949 479.138 L 350.949 479.138 L 350.949 479.138 Q 352.375 480.271 353.195 481.853 L 353.195 481.853 L 353.195 481.853 Q 354.016 483.435 354.016 485.388 L 354.016 485.388 L 354.016 485.388 Q 354.016 487.263 353.508 488.532 L 353.508 488.532 L 353.508 488.532 Q 353 489.802 352.18 490.603 L 352.18 490.603 L 352.18 490.603 Q 351.359 491.403 350.363 491.755 L 350.363 491.755 L 350.363 491.755 Q 349.367 492.106 348.43 492.106 Z  M 369.445 463.864 L 369.445 463.864 L 369.445 463.864 Q 371.75 463.864 373.117 465.075 L 373.117 465.075 L 373.117 465.075 Q 374.484 466.286 374.484 468.513 L 374.484 468.513 L 374.484 468.513 Q 374.484 469.997 374.016 470.993 L 374.016 470.993 L 374.016 470.993 Q 373.547 471.989 372.805 472.595 L 372.805 472.595 L 372.805 472.595 Q 372.063 473.2 371.184 473.454 L 371.184 473.454 L 371.184 473.454 Q 370.305 473.708 369.445 473.708 L 369.445 473.708 L 369.445 473.708 Q 368.703 473.708 367.883 473.474 L 367.883 473.474 L 367.883 473.474 Q 367.063 473.239 366.359 472.673 L 366.359 472.673 L 366.359 472.673 Q 365.656 472.106 365.207 471.188 L 365.207 471.188 L 365.207 471.188 Q 364.758 470.271 364.758 468.903 L 364.758 468.903 L 364.758 468.903 Q 364.758 467.458 365.227 466.501 L 365.227 466.501 L 365.227 466.501 Q 365.695 465.544 366.398 464.958 L 366.398 464.958 L 366.398 464.958 Q 367.102 464.372 367.922 464.118 L 367.922 464.118 L 367.922 464.118 Q 368.742 463.864 369.445 463.864 Z  M 374.992 476.677 L 374.992 476.677 L 374.992 476.677 Q 375.383 476.677 375.383 477.575 L 375.383 477.575 L 375.383 477.575 Q 375.383 478.161 375.246 479.509 L 375.246 479.509 L 375.246 479.509 Q 375.109 480.856 374.914 482.38 L 374.914 482.38 L 374.914 482.38 Q 374.602 484.802 374.289 487.751 L 374.289 487.751 L 374.289 487.751 Q 373.977 490.7 373.684 493.806 L 373.684 493.806 L 373.684 493.806 Q 373.391 496.911 373.137 499.958 L 373.137 499.958 L 373.137 499.958 Q 372.883 503.005 372.688 505.603 L 372.688 505.603 L 372.688 505.603 Q 372.492 508.2 372.375 510.173 L 372.375 510.173 L 372.375 510.173 Q 372.258 512.146 372.258 513.083 L 372.258 513.083 L 372.258 513.083 Q 372.258 514.294 372.414 515.075 L 372.414 515.075 L 372.414 515.075 Q 372.57 515.856 372.805 516.364 L 372.805 516.364 L 372.805 516.364 Q 373.039 516.872 373.332 517.185 L 373.332 517.185 L 373.332 517.185 Q 373.625 517.497 373.938 517.731 L 373.938 517.731 L 373.938 517.731 Q 374.289 517.966 374.797 518.161 L 374.797 518.161 L 374.797 518.161 Q 375.305 518.356 375.891 518.532 L 375.891 518.532 L 375.891 518.532 Q 376.477 518.708 377.082 518.825 L 377.082 518.825 L 377.082 518.825 Q 377.688 518.942 378.195 518.981 L 378.195 518.981 L 378.195 518.981 Q 379.016 519.138 379.523 519.216 L 379.523 519.216 L 379.523 519.216 Q 380.031 519.294 380.031 519.724 L 380.031 519.724 L 380.031 519.724 Q 380.031 520.505 378.352 520.505 L 378.352 520.505 L 378.352 520.505 Q 377.18 520.505 376.008 520.329 L 376.008 520.329 L 376.008 520.329 Q 374.836 520.153 373.605 519.919 L 373.605 519.919 L 373.605 519.919 Q 372.375 519.685 371.047 519.509 L 371.047 519.509 L 371.047 519.509 Q 369.719 519.333 368.195 519.333 L 368.195 519.333 L 368.195 519.333 Q 366.789 519.333 365.656 519.411 L 365.656 519.411 L 365.656 519.411 Q 364.523 519.489 363.586 519.606 L 363.586 519.606 L 363.586 519.606 Q 362.648 519.724 361.828 519.802 L 361.828 519.802 L 361.828 519.802 Q 361.008 519.88 360.188 519.88 L 360.188 519.88 L 360.188 519.88 Q 359.523 519.88 358.977 519.704 L 358.977 519.704 L 358.977 519.704 Q 358.43 519.528 358.43 518.981 L 358.43 518.981 L 358.43 518.981 Q 358.43 518.435 359.035 518.22 L 359.035 518.22 L 359.035 518.22 Q 359.641 518.005 360.266 517.888 L 360.266 517.888 L 360.266 517.888 Q 361.047 517.731 361.789 517.536 L 361.789 517.536 L 361.789 517.536 Q 362.531 517.341 363.137 516.931 L 363.137 516.931 L 363.137 516.931 Q 363.742 516.521 364.152 515.837 L 364.152 515.837 L 364.152 515.837 Q 364.563 515.153 364.68 514.06 L 364.68 514.06 L 364.68 514.06 Q 364.836 511.911 364.914 509.685 L 364.914 509.685 L 364.914 509.685 Q 364.992 507.458 365.031 505.29 L 365.031 505.29 L 365.031 505.29 Q 365.07 503.122 365.07 501.071 L 365.07 501.071 L 365.07 501.071 Q 365.07 499.021 365.07 497.224 L 365.07 497.224 L 365.07 497.224 Q 365.07 495.075 365.07 493.298 L 365.07 493.298 L 365.07 493.298 Q 365.07 491.521 364.992 490.271 L 364.992 490.271 L 364.992 490.271 Q 364.914 488.278 364.543 487.146 L 364.543 487.146 L 364.543 487.146 Q 364.172 486.013 363.488 485.466 L 363.488 485.466 L 363.488 485.466 Q 362.805 484.919 361.75 484.743 L 361.75 484.743 L 361.75 484.743 Q 360.695 484.567 359.211 484.45 L 359.211 484.45 L 359.211 484.45 Q 358.781 484.372 358.527 484.177 L 358.527 484.177 L 358.527 484.177 Q 358.273 483.981 358.273 483.552 L 358.273 483.552 L 358.273 483.552 Q 358.273 482.81 359.445 482.692 L 359.445 482.692 L 359.445 482.692 Q 360.031 482.653 360.93 482.556 L 360.93 482.556 L 360.93 482.556 Q 361.828 482.458 363.02 482.263 L 363.02 482.263 L 363.02 482.263 Q 364.211 482.067 365.617 481.696 L 365.617 481.696 L 365.617 481.696 Q 367.023 481.325 368.586 480.661 L 368.586 480.661 L 368.586 480.661 Q 370.305 479.958 371.418 479.255 L 371.418 479.255 L 371.418 479.255 Q 372.531 478.552 373.234 477.985 L 373.234 477.985 L 373.234 477.985 Q 373.938 477.419 374.328 477.048 L 374.328 477.048 L 374.328 477.048 Q 374.719 476.677 374.992 476.677 Z  M 393.273 498.356 L 393.273 498.356 L 393.273 498.356 Q 391.828 498.356 390.559 497.81 L 390.559 497.81 L 390.559 497.81 Q 389.289 497.263 388.352 496.169 L 388.352 496.169 L 388.352 496.169 Q 387.414 495.075 386.867 493.435 L 386.867 493.435 L 386.867 493.435 Q 386.32 491.794 386.32 489.567 L 386.32 489.567 L 386.32 489.567 Q 386.32 487.146 387.004 484.821 L 387.004 484.821 L 387.004 484.821 Q 387.688 482.497 389.133 480.681 L 389.133 480.681 L 389.133 480.681 Q 390.578 478.864 392.824 477.771 L 392.824 477.771 L 392.824 477.771 Q 395.07 476.677 398.234 476.677 L 398.234 476.677 L 398.234 476.677 Q 400.852 476.677 402.863 477.36 L 402.863 477.36 L 402.863 477.36 Q 404.875 478.044 406.398 479.196 L 406.398 479.196 L 406.398 479.196 Q 407.922 480.349 408.996 481.872 L 408.996 481.872 L 408.996 481.872 Q 410.07 483.396 410.813 485.056 L 410.813 485.056 L 410.813 485.056 Q 411.555 486.716 412.043 488.415 L 412.043 488.415 L 412.043 488.415 Q 412.531 490.114 412.883 491.638 L 412.883 491.638 L 412.883 491.638 Q 413.078 492.497 413.371 494.079 L 413.371 494.079 L 413.371 494.079 Q 413.664 495.661 414.016 497.731 L 414.016 497.731 L 414.016 497.731 Q 414.367 499.802 414.758 502.165 L 414.758 502.165 L 414.758 502.165 Q 415.148 504.528 415.539 506.95 L 415.539 506.95 L 415.539 506.95 Q 415.93 509.372 416.301 511.657 L 416.301 511.657 L 416.301 511.657 Q 416.672 513.942 416.984 515.837 L 416.984 515.837 L 416.984 515.837 Q 417.297 517.731 417.512 519.079 L 417.512 519.079 L 417.512 519.079 Q 417.727 520.427 417.844 520.935 L 417.844 520.935 L 417.844 520.935 Q 418.078 522.146 418.371 523.396 L 418.371 523.396 L 418.371 523.396 Q 418.664 524.646 419.113 525.681 L 419.113 525.681 L 419.113 525.681 Q 419.563 526.716 420.227 527.38 L 420.227 527.38 L 420.227 527.38 Q 420.891 528.044 421.906 528.044 L 421.906 528.044 L 421.906 528.044 Q 422.492 528.044 422.922 527.771 L 422.922 527.771 L 422.922 527.771 Q 423.352 527.497 423.605 527.028 L 423.605 527.028 L 423.605 527.028 Q 423.859 526.56 423.977 525.974 L 423.977 525.974 L 423.977 525.974 Q 424.094 525.388 424.094 524.763 L 424.094 524.763 L 424.094 524.763 Q 424.094 524.021 424.055 523.259 L 424.055 523.259 L 424.055 523.259 Q 424.016 522.497 424.016 521.95 L 424.016 521.95 L 424.016 521.95 Q 424.016 521.364 424.172 520.935 L 424.172 520.935 L 424.172 520.935 Q 424.328 520.505 424.797 520.505 L 424.797 520.505 L 424.797 520.505 Q 425.227 520.505 425.48 520.993 L 425.48 520.993 L 425.48 520.993 Q 425.734 521.481 425.871 522.126 L 425.871 522.126 L 425.871 522.126 Q 426.008 522.771 426.047 523.415 L 426.047 523.415 L 426.047 523.415 Q 426.086 524.06 426.086 524.372 L 426.086 524.372 L 426.086 524.372 Q 426.086 525.739 425.852 527.458 L 425.852 527.458 L 425.852 527.458 Q 425.617 529.177 424.875 530.778 L 424.875 530.778 L 424.875 530.778 Q 424.172 532.419 422.531 533.474 L 422.531 533.474 L 422.531 533.474 Q 420.891 534.528 418.742 534.528 L 418.742 534.528 L 418.742 534.528 Q 416.867 534.528 415.52 533.981 L 415.52 533.981 L 415.52 533.981 Q 414.172 533.435 413.215 532.614 L 413.215 532.614 L 413.215 532.614 Q 412.258 531.794 411.613 530.856 L 411.613 530.856 L 411.613 530.856 Q 410.969 529.919 410.578 529.099 L 410.578 529.099 L 410.578 529.099 Q 409.484 526.989 408.918 524.47 L 408.918 524.47 L 408.918 524.47 Q 408.352 521.95 408 519.646 L 408 519.646 L 408 519.646 Q 407.414 520.622 406.223 522.067 L 406.223 522.067 L 406.223 522.067 Q 405.031 523.513 403.273 524.841 L 403.273 524.841 L 403.273 524.841 Q 401.516 526.169 399.211 527.106 L 399.211 527.106 L 399.211 527.106 Q 396.906 528.044 394.094 528.044 L 394.094 528.044 L 394.094 528.044 Q 390.969 528.044 388.762 527.165 L 388.762 527.165 L 388.762 527.165 Q 386.555 526.286 385.148 524.782 L 385.148 524.782 L 385.148 524.782 Q 383.742 523.278 383.078 521.267 L 383.078 521.267 L 383.078 521.267 Q 382.414 519.255 382.414 516.989 L 382.414 516.989 L 382.414 516.989 Q 382.414 514.567 383.313 512.106 L 383.313 512.106 L 383.313 512.106 Q 384.211 509.646 386.262 507.653 L 386.262 507.653 L 386.262 507.653 Q 388.313 505.661 391.613 504.411 L 391.613 504.411 L 391.613 504.411 Q 394.914 503.161 399.68 503.161 L 399.68 503.161 L 399.68 503.161 Q 400.773 503.161 401.809 503.259 L 401.809 503.259 L 401.809 503.259 Q 402.844 503.356 403.684 503.474 L 403.684 503.474 L 403.684 503.474 Q 404.523 503.591 405.129 503.708 L 405.129 503.708 L 405.129 503.708 Q 405.734 503.825 406.008 503.864 L 406.008 503.864 L 406.008 503.864 Q 405.773 500.505 405.422 497.146 L 405.422 497.146 L 405.422 497.146 Q 405.266 495.739 405.09 494.177 L 405.09 494.177 L 405.09 494.177 Q 404.914 492.614 404.719 491.032 L 404.719 491.032 L 404.719 491.032 Q 404.523 489.45 404.289 487.927 L 404.289 487.927 L 404.289 487.927 Q 404.055 486.403 403.781 485.075 L 403.781 485.075 L 403.781 485.075 Q 403.156 482.067 401.34 480.29 L 401.34 480.29 L 401.34 480.29 Q 399.523 478.513 396.711 478.513 L 396.711 478.513 L 396.711 478.513 Q 395.188 478.513 394.035 479.06 L 394.035 479.06 L 394.035 479.06 Q 392.883 479.606 392.082 480.466 L 392.082 480.466 L 392.082 480.466 Q 391.281 481.325 390.891 482.399 L 390.891 482.399 L 390.891 482.399 Q 390.5 483.474 390.5 484.528 L 390.5 484.528 L 390.5 484.528 Q 390.5 485.661 391.047 486.423 L 391.047 486.423 L 391.047 486.423 Q 391.594 487.185 392.395 487.771 L 392.395 487.771 L 392.395 487.771 Q 393.195 488.356 394.133 488.884 L 394.133 488.884 L 394.133 488.884 Q 395.07 489.411 395.871 490.095 L 395.871 490.095 L 395.871 490.095 Q 396.672 490.778 397.219 491.735 L 397.219 491.735 L 397.219 491.735 Q 397.766 492.692 397.766 494.138 L 397.766 494.138 L 397.766 494.138 Q 397.766 496.052 396.457 497.204 L 396.457 497.204 L 396.457 497.204 Q 395.148 498.356 393.273 498.356 Z  M 406.32 506.286 L 406.32 506.286 L 406.32 506.286 Q 406.047 506.169 405.363 505.993 L 405.363 505.993 L 405.363 505.993 Q 404.68 505.817 403.742 505.642 L 403.742 505.642 L 403.742 505.642 Q 402.805 505.466 401.73 505.349 L 401.73 505.349 L 401.73 505.349 Q 400.656 505.231 399.602 505.231 L 399.602 505.231 L 399.602 505.231 Q 397.531 505.231 395.754 505.817 L 395.754 505.817 L 395.754 505.817 Q 393.977 506.403 392.688 507.556 L 392.688 507.556 L 392.688 507.556 Q 391.398 508.708 390.656 510.446 L 390.656 510.446 L 390.656 510.446 Q 389.914 512.185 389.914 514.45 L 389.914 514.45 L 389.914 514.45 Q 389.914 516.521 390.598 517.868 L 390.598 517.868 L 390.598 517.868 Q 391.281 519.216 392.355 519.997 L 392.355 519.997 L 392.355 519.997 Q 393.43 520.778 394.738 521.091 L 394.738 521.091 L 394.738 521.091 Q 396.047 521.403 397.297 521.403 L 397.297 521.403 L 397.297 521.403 Q 399.289 521.403 401.086 520.778 L 401.086 520.778 L 401.086 520.778 Q 402.883 520.153 404.25 519.333 L 404.25 519.333 L 404.25 519.333 Q 405.617 518.513 406.477 517.731 L 406.477 517.731 L 406.477 517.731 Q 407.336 516.95 407.531 516.677 L 407.531 516.677 L 407.531 516.677 Q 407.258 514.06 407.023 511.911 L 407.023 511.911 L 407.023 511.911 Q 406.906 510.974 406.809 510.075 L 406.809 510.075 L 406.809 510.075 Q 406.711 509.177 406.613 508.396 L 406.613 508.396 L 406.613 508.396 Q 406.516 507.614 406.438 507.067 L 406.438 507.067 L 406.438 507.067 Q 406.359 506.521 406.32 506.286 Z  M 439.914 453.474 L 439.914 453.474 L 439.914 453.474 Q 439.914 453.903 439.914 455.505 L 439.914 455.505 L 439.914 455.505 Q 439.914 457.106 439.934 459.333 L 439.934 459.333 L 439.934 459.333 Q 439.953 461.56 439.973 464.099 L 439.973 464.099 L 439.973 464.099 Q 439.992 466.638 440.07 468.981 L 440.07 468.981 L 440.07 468.981 Q 440.148 472.263 440.344 476.56 L 440.344 476.56 L 440.344 476.56 Q 440.539 480.856 440.754 485.485 L 440.754 485.485 L 440.754 485.485 Q 440.969 490.114 441.223 494.802 L 441.223 494.802 L 441.223 494.802 Q 441.477 499.489 441.73 503.571 L 441.73 503.571 L 441.73 503.571 Q 441.984 507.653 442.18 510.817 L 442.18 510.817 L 442.18 510.817 Q 442.375 513.981 442.492 515.622 L 442.492 515.622 L 442.492 515.622 Q 442.648 517.927 443.117 519.255 L 443.117 519.255 L 443.117 519.255 Q 443.586 520.583 444.426 521.364 L 444.426 521.364 L 444.426 521.364 Q 445.266 522.146 446.535 522.575 L 446.535 522.575 L 446.535 522.575 Q 447.805 523.005 449.602 523.474 L 449.602 523.474 L 449.602 523.474 Q 450.266 523.669 450.461 523.903 L 450.461 523.903 L 450.461 523.903 Q 450.656 524.138 450.656 524.45 L 450.656 524.45 L 450.656 524.45 Q 450.656 524.802 450.383 525.056 L 450.383 525.056 L 450.383 525.056 Q 450.109 525.31 449.367 525.31 L 449.367 525.31 L 449.367 525.31 Q 449.016 525.31 447.941 525.231 L 447.941 525.231 L 447.941 525.231 Q 446.867 525.153 445.422 525.036 L 445.422 525.036 L 445.422 525.036 Q 443.977 524.919 442.277 524.841 L 442.277 524.841 L 442.277 524.841 Q 440.578 524.763 438.977 524.763 L 438.977 524.763 L 438.977 524.763 Q 437.688 524.763 436.242 524.88 L 436.242 524.88 L 436.242 524.88 Q 434.797 524.997 433.43 525.114 L 433.43 525.114 L 433.43 525.114 Q 432.063 525.231 430.871 525.349 L 430.871 525.349 L 430.871 525.349 Q 429.68 525.466 428.898 525.466 L 428.898 525.466 L 428.898 525.466 Q 428.352 525.466 427.824 525.271 L 427.824 525.271 L 427.824 525.271 Q 427.297 525.075 427.297 524.372 L 427.297 524.372 L 427.297 524.372 Q 427.297 523.317 428.82 523.317 L 428.82 523.317 L 428.82 523.317 Q 429.836 523.317 431.105 523.2 L 431.105 523.2 L 431.105 523.2 Q 432.375 523.083 433.195 522.771 L 433.195 522.771 L 433.195 522.771 Q 433.859 522.536 434.25 522.106 L 434.25 522.106 L 434.25 522.106 Q 434.641 521.677 434.855 521.149 L 434.855 521.149 L 434.855 521.149 Q 435.07 520.622 435.148 520.056 L 435.148 520.056 L 435.148 520.056 Q 435.227 519.489 435.227 518.903 L 435.227 518.903 L 435.227 518.903 Q 435.227 518.2 435.129 516.657 L 435.129 516.657 L 435.129 516.657 Q 435.031 515.114 434.875 513.044 L 434.875 513.044 L 434.875 513.044 Q 434.719 510.974 434.504 508.474 L 434.504 508.474 L 434.504 508.474 Q 434.289 505.974 434.055 503.337 L 434.055 503.337 L 434.055 503.337 Q 433.82 500.7 433.586 498.083 L 433.586 498.083 L 433.586 498.083 Q 433.352 495.466 433.117 493.122 L 433.117 493.122 L 433.117 493.122 Q 432.883 490.778 432.707 488.864 L 432.707 488.864 L 432.707 488.864 Q 432.531 486.95 432.414 485.739 L 432.414 485.739 L 432.414 485.739 Q 432.219 483.942 432.023 482.009 L 432.023 482.009 L 432.023 482.009 Q 431.828 480.075 431.633 478.2 L 431.633 478.2 L 431.633 478.2 Q 431.438 476.325 431.203 474.606 L 431.203 474.606 L 431.203 474.606 Q 430.969 472.888 430.734 471.481 L 430.734 471.481 L 430.734 471.481 Q 430.5 470.114 429.934 469.353 L 429.934 469.353 L 429.934 469.353 Q 429.367 468.591 428.234 468.591 L 428.234 468.591 L 428.234 468.591 Q 427.336 468.591 426.145 469.021 L 426.145 469.021 L 426.145 469.021 Q 424.953 469.45 423.742 469.958 L 423.742 469.958 L 423.742 469.958 Q 422.531 470.466 421.457 470.896 L 421.457 470.896 L 421.457 470.896 Q 420.383 471.325 419.758 471.325 L 419.758 471.325 L 419.758 471.325 Q 419.328 471.325 418.996 471.11 L 418.996 471.11 L 418.996 471.11 Q 418.664 470.896 418.664 470.349 L 418.664 470.349 L 418.664 470.349 Q 418.664 469.606 419.445 469.099 L 419.445 469.099 L 419.445 469.099 Q 419.797 468.825 420.383 468.552 L 420.383 468.552 L 420.383 468.552 Q 420.969 468.278 421.926 467.79 L 421.926 467.79 L 421.926 467.79 Q 422.883 467.302 424.289 466.481 L 424.289 466.481 L 424.289 466.481 Q 425.695 465.661 427.688 464.294 L 427.688 464.294 L 427.688 464.294 Q 429.797 462.849 431.516 461.247 L 431.516 461.247 L 431.516 461.247 Q 433.234 459.646 434.582 458.142 L 434.582 458.142 L 434.582 458.142 Q 435.93 456.638 436.848 455.388 L 436.848 455.388 L 436.848 455.388 Q 437.766 454.138 438.234 453.396 L 438.234 453.396 L 438.234 453.396 Q 438.664 452.81 438.898 452.458 L 438.898 452.458 L 438.898 452.458 Q 439.133 452.106 439.445 452.106 L 439.445 452.106 L 439.445 452.106 Q 439.758 452.106 439.836 452.556 L 439.836 452.556 L 439.836 452.556 Q 439.914 453.005 439.914 453.474 Z  M 473.859 475.739 L 473.859 475.739 L 473.859 475.739 Q 474.211 475.739 474.348 475.935 L 474.348 475.935 L 474.348 475.935 Q 474.484 476.13 474.484 476.364 L 474.484 476.364 L 474.484 476.364 Q 474.484 476.833 473.82 477.692 L 473.82 477.692 L 473.82 477.692 Q 473.156 478.552 472.336 479.704 L 472.336 479.704 L 472.336 479.704 Q 471.516 480.856 470.852 482.185 L 470.852 482.185 L 470.852 482.185 Q 470.188 483.513 470.188 484.841 L 470.188 484.841 L 470.188 484.841 Q 470.188 486.208 470.539 487.888 L 470.539 487.888 L 470.539 487.888 Q 470.891 489.567 471.418 491.345 L 471.418 491.345 L 471.418 491.345 Q 471.945 493.122 472.57 494.841 L 472.57 494.841 L 472.57 494.841 Q 473.195 496.56 473.781 497.966 L 473.781 497.966 L 473.781 497.966 Q 473.977 498.552 474.484 499.743 L 474.484 499.743 L 474.484 499.743 Q 474.992 500.935 475.617 502.38 L 475.617 502.38 L 475.617 502.38 Q 476.242 503.825 476.965 505.349 L 476.965 505.349 L 476.965 505.349 Q 477.688 506.872 478.352 508.142 L 478.352 508.142 L 478.352 508.142 Q 479.016 509.411 479.563 510.212 L 479.563 510.212 L 479.563 510.212 Q 480.109 511.013 480.422 511.013 L 480.422 511.013 L 480.422 511.013 Q 480.734 511.013 481.281 510.329 L 481.281 510.329 L 481.281 510.329 Q 481.828 509.646 482.551 508.415 L 482.551 508.415 L 482.551 508.415 Q 483.273 507.185 484.23 505.524 L 484.23 505.524 L 484.23 505.524 Q 485.188 503.864 486.32 501.872 L 486.32 501.872 L 486.32 501.872 Q 488.078 498.786 489.426 496.325 L 489.426 496.325 L 489.426 496.325 Q 490.773 493.864 491.75 492.146 L 491.75 492.146 L 491.75 492.146 Q 492.727 490.427 493.352 489.509 L 493.352 489.509 L 493.352 489.509 Q 493.977 488.591 494.328 488.591 L 494.328 488.591 L 494.328 488.591 Q 494.68 488.591 495.246 489.177 L 495.246 489.177 L 495.246 489.177 Q 495.813 489.763 496.887 491.286 L 496.887 491.286 L 496.887 491.286 Q 497.961 492.81 499.699 495.466 L 499.699 495.466 L 499.699 495.466 Q 501.438 498.122 504.172 502.263 L 504.172 502.263 L 504.172 502.263 Q 504.602 502.927 505.402 504.177 L 505.402 504.177 L 505.402 504.177 Q 506.203 505.427 507.18 506.95 L 507.18 506.95 L 507.18 506.95 Q 508.156 508.474 509.23 510.056 L 509.23 510.056 L 509.23 510.056 Q 510.305 511.638 511.262 512.927 L 511.262 512.927 L 511.262 512.927 Q 512.219 514.216 512.98 515.056 L 512.98 515.056 L 512.98 515.056 Q 513.742 515.896 514.094 515.896 L 514.094 515.896 L 514.094 515.896 Q 514.484 515.896 515.188 514.86 L 515.188 514.86 L 515.188 514.86 Q 515.891 513.825 516.711 512.321 L 516.711 512.321 L 516.711 512.321 Q 517.531 510.817 518.371 509.138 L 518.371 509.138 L 518.371 509.138 Q 519.211 507.458 519.836 506.13 L 519.836 506.13 L 519.836 506.13 Q 520.109 505.544 520.773 504.099 L 520.773 504.099 L 520.773 504.099 Q 521.438 502.653 522.316 500.622 L 522.316 500.622 L 522.316 500.622 Q 523.195 498.591 524.25 496.11 L 524.25 496.11 L 524.25 496.11 Q 525.305 493.63 526.34 491.013 L 526.34 491.013 L 526.34 491.013 Q 527.375 488.396 528.352 485.759 L 528.352 485.759 L 528.352 485.759 Q 529.328 483.122 530.09 480.778 L 530.09 480.778 L 530.09 480.778 Q 530.852 478.435 531.301 476.54 L 531.301 476.54 L 531.301 476.54 Q 531.75 474.646 531.75 473.474 L 531.75 473.474 L 531.75 473.474 Q 531.75 472.458 531.086 471.638 L 531.086 471.638 L 531.086 471.638 Q 530.422 470.817 529.211 470.192 L 529.211 470.192 L 529.211 470.192 Q 527.375 469.255 525.949 468.649 L 525.949 468.649 L 525.949 468.649 Q 524.523 468.044 523.527 467.595 L 523.527 467.595 L 523.527 467.595 Q 522.531 467.146 522.023 466.774 L 522.023 466.774 L 522.023 466.774 Q 521.516 466.403 521.516 465.896 L 521.516 465.896 L 521.516 465.896 Q 521.516 465.466 521.828 465.231 L 521.828 465.231 L 521.828 465.231 Q 522.141 464.997 522.57 464.997 L 522.57 464.997 L 522.57 464.997 Q 523.156 464.997 524.094 465.329 L 524.094 465.329 L 524.094 465.329 Q 525.031 465.661 526.574 466.149 L 526.574 466.149 L 526.574 466.149 Q 528.117 466.638 530.441 467.224 L 530.441 467.224 L 530.441 467.224 Q 532.766 467.81 536.164 468.278 L 536.164 468.278 L 536.164 468.278 Q 538.859 468.63 541.125 468.767 L 541.125 468.767 L 541.125 468.767 Q 543.391 468.903 545.383 468.903 L 545.383 468.903 L 545.383 468.903 Q 546.594 468.903 547.414 468.864 L 547.414 468.864 L 547.414 468.864 Q 548.234 468.825 548.742 468.825 L 548.742 468.825 L 548.742 468.825 Q 549.836 468.825 550.246 469.118 L 550.246 469.118 L 550.246 469.118 Q 550.656 469.411 550.656 469.88 L 550.656 469.88 L 550.656 469.88 Q 550.656 470.349 550.344 470.603 L 550.344 470.603 L 550.344 470.603 Q 550.031 470.856 549.582 471.013 L 549.582 471.013 L 549.582 471.013 Q 549.133 471.169 548.605 471.208 L 548.605 471.208 L 548.605 471.208 Q 548.078 471.247 547.609 471.247 L 547.609 471.247 L 547.609 471.247 Q 545.578 471.247 544.152 471.345 L 544.152 471.345 L 544.152 471.345 Q 542.727 471.442 541.652 471.735 L 541.652 471.735 L 541.652 471.735 Q 540.578 472.028 539.719 472.634 L 539.719 472.634 L 539.719 472.634 Q 538.859 473.239 538 474.216 L 538 474.216 L 538 474.216 Q 537.102 475.231 535.93 477.321 L 535.93 477.321 L 535.93 477.321 Q 534.758 479.411 533.43 482.204 L 533.43 482.204 L 533.43 482.204 Q 532.102 484.997 530.637 488.278 L 530.637 488.278 L 530.637 488.278 Q 529.172 491.56 527.707 494.938 L 527.707 494.938 L 527.707 494.938 Q 526.242 498.317 524.797 501.599 L 524.797 501.599 L 524.797 501.599 Q 523.352 504.88 522.023 507.653 L 522.023 507.653 L 522.023 507.653 Q 521.203 509.372 520.051 511.931 L 520.051 511.931 L 520.051 511.931 Q 518.898 514.489 517.609 517.341 L 517.609 517.341 L 517.609 517.341 Q 516.32 520.192 515.012 523.024 L 515.012 523.024 L 515.012 523.024 Q 513.703 525.856 512.531 528.122 L 512.531 528.122 L 512.531 528.122 Q 511.359 530.388 510.461 531.813 L 510.461 531.813 L 510.461 531.813 Q 509.563 533.239 509.133 533.239 L 509.133 533.239 L 509.133 533.239 Q 508.469 533.239 507.004 530.446 L 507.004 530.446 L 507.004 530.446 Q 505.539 527.653 503.117 522.458 L 503.117 522.458 L 503.117 522.458 Q 501.633 519.216 500.285 516.11 L 500.285 516.11 L 500.285 516.11 Q 498.938 513.005 497.746 510.251 L 497.746 510.251 L 497.746 510.251 Q 496.555 507.497 495.578 505.192 L 495.578 505.192 L 495.578 505.192 Q 494.602 502.888 493.82 501.208 L 493.82 501.208 L 493.82 501.208 Q 493.039 499.528 492.492 498.591 L 492.492 498.591 L 492.492 498.591 Q 491.945 497.653 491.672 497.653 L 491.672 497.653 L 491.672 497.653 Q 491.398 497.653 490.715 498.708 L 490.715 498.708 L 490.715 498.708 Q 490.031 499.763 489.113 501.403 L 489.113 501.403 L 489.113 501.403 Q 488.195 503.044 487.18 505.036 L 487.18 505.036 L 487.18 505.036 Q 486.164 507.028 485.227 508.864 L 485.227 508.864 L 485.227 508.864 Q 484.289 510.7 483.547 512.185 L 483.547 512.185 L 483.547 512.185 Q 482.805 513.669 482.492 514.294 L 482.492 514.294 L 476.633 525.388 L 476.633 525.388 Q 476.086 526.364 475.715 526.755 L 475.715 526.755 L 475.715 526.755 Q 475.344 527.146 474.953 527.146 L 474.953 527.146 L 474.953 527.146 Q 474.289 527.146 473.703 525.739 L 473.703 525.739 L 473.703 525.739 Q 473.234 524.646 472.668 523.2 L 472.668 523.2 L 472.668 523.2 Q 472.102 521.755 471.496 520.095 L 471.496 520.095 L 471.496 520.095 Q 470.891 518.435 470.246 516.657 L 470.246 516.657 L 470.246 516.657 Q 469.602 514.88 468.977 513.161 L 468.977 513.161 L 468.977 513.161 Q 467.844 509.997 466.945 507.009 L 466.945 507.009 L 466.945 507.009 Q 466.047 504.021 465.188 501.345 L 465.188 501.345 L 465.188 501.345 Q 464.328 498.669 463.43 496.442 L 463.43 496.442 L 463.43 496.442 Q 462.531 494.216 461.438 492.595 L 461.438 492.595 L 461.438 492.595 Q 460.344 490.974 458.957 490.075 L 458.957 490.075 L 458.957 490.075 Q 457.57 489.177 455.773 489.177 L 455.773 489.177 L 455.773 489.177 Q 454.875 489.177 454.035 489.274 L 454.035 489.274 L 454.035 489.274 Q 453.195 489.372 452.434 489.489 L 452.434 489.489 L 452.434 489.489 Q 451.672 489.606 451.027 489.704 L 451.027 489.704 L 451.027 489.704 Q 450.383 489.802 449.914 489.802 L 449.914 489.802 L 449.914 489.802 Q 448.586 489.802 448.586 488.825 L 448.586 488.825 L 448.586 488.825 Q 448.586 488.278 448.938 488.024 L 448.938 488.024 L 448.938 488.024 Q 449.289 487.771 449.836 487.575 L 449.836 487.575 L 449.836 487.575 Q 450.539 487.341 451.711 487.146 L 451.711 487.146 L 451.711 487.146 Q 452.883 486.95 454.426 486.56 L 454.426 486.56 L 454.426 486.56 Q 455.969 486.169 457.883 485.505 L 457.883 485.505 L 457.883 485.505 Q 459.797 484.841 462.023 483.708 L 462.023 483.708 L 462.023 483.708 Q 465.148 482.146 467.219 480.7 L 467.219 480.7 L 467.219 480.7 Q 469.289 479.255 470.637 478.142 L 470.637 478.142 L 470.637 478.142 Q 471.984 477.028 472.707 476.384 L 472.707 476.384 L 472.707 476.384 Q 473.43 475.739 473.859 475.739 Z  M 550.656 476.677 L 550.656 476.677 L 550.656 476.677 Q 550.656 477.146 550.617 477.985 L 550.617 477.985 L 550.617 477.985 Q 550.578 478.825 550.578 479.724 L 550.578 479.724 L 550.578 479.724 Q 550.578 480.856 550.715 482.126 L 550.715 482.126 L 550.715 482.126 Q 550.852 483.396 551.066 484.47 L 551.066 484.47 L 551.066 484.47 Q 551.281 485.544 551.496 486.267 L 551.496 486.267 L 551.496 486.267 Q 551.711 486.989 551.867 486.989 L 551.867 486.989 L 551.867 486.989 Q 552.023 486.989 552.316 485.856 L 552.316 485.856 L 552.316 485.856 Q 552.609 484.724 553.176 483.005 L 553.176 483.005 L 553.176 483.005 Q 553.742 481.286 554.641 479.313 L 554.641 479.313 L 554.641 479.313 Q 555.539 477.341 556.945 475.622 L 556.945 475.622 L 556.945 475.622 Q 558.352 473.903 560.324 472.771 L 560.324 472.771 L 560.324 472.771 Q 562.297 471.638 564.992 471.638 L 564.992 471.638 L 564.992 471.638 Q 567.492 471.638 569.191 472.497 L 569.191 472.497 L 569.191 472.497 Q 570.891 473.356 571.906 474.646 L 571.906 474.646 L 571.906 474.646 Q 572.922 475.935 573.352 477.438 L 573.352 477.438 L 573.352 477.438 Q 573.781 478.942 573.781 480.271 L 573.781 480.271 L 573.781 480.271 Q 573.781 482.341 573.234 483.884 L 573.234 483.884 L 573.234 483.884 Q 572.688 485.427 571.77 486.442 L 571.77 486.442 L 571.77 486.442 Q 570.852 487.458 569.68 487.985 L 569.68 487.985 L 569.68 487.985 Q 568.508 488.513 567.297 488.513 L 567.297 488.513 L 567.297 488.513 Q 565.07 488.513 563.664 487.458 L 563.664 487.458 L 563.664 487.458 Q 562.258 486.403 562.258 484.372 L 562.258 484.372 L 562.258 484.372 Q 562.258 483.278 562.551 482.497 L 562.551 482.497 L 562.551 482.497 Q 562.844 481.716 563.332 481.169 L 563.332 481.169 L 563.332 481.169 Q 563.82 480.622 564.504 480.251 L 564.504 480.251 L 564.504 480.251 Q 565.188 479.88 566.008 479.646 L 566.008 479.646 L 566.008 479.646 Q 567.688 479.138 568.293 478.396 L 568.293 478.396 L 568.293 478.396 Q 568.898 477.653 568.898 476.677 L 568.898 476.677 L 568.898 476.677 Q 568.898 476.091 568.684 475.544 L 568.684 475.544 L 568.684 475.544 Q 568.469 474.997 567.98 474.548 L 567.98 474.548 L 567.98 474.548 Q 567.492 474.099 566.73 473.825 L 566.73 473.825 L 566.73 473.825 Q 565.969 473.552 564.875 473.552 L 564.875 473.552 L 564.875 473.552 Q 562.648 473.552 560.969 474.587 L 560.969 474.587 L 560.969 474.587 Q 559.289 475.622 558.039 477.36 L 558.039 477.36 L 558.039 477.36 Q 556.789 479.099 555.969 481.364 L 555.969 481.364 L 555.969 481.364 Q 555.148 483.63 554.641 486.11 L 554.641 486.11 L 554.641 486.11 Q 554.133 488.591 553.918 491.11 L 553.918 491.11 L 553.918 491.11 Q 553.703 493.63 553.703 495.817 L 553.703 495.817 L 553.703 495.817 Q 553.703 497.81 553.859 500.134 L 553.859 500.134 L 553.859 500.134 Q 554.016 502.458 554.27 504.802 L 554.27 504.802 L 554.27 504.802 Q 554.523 507.146 554.836 509.372 L 554.836 509.372 L 554.836 509.372 Q 555.148 511.599 555.441 513.435 L 555.441 513.435 L 555.441 513.435 Q 555.734 515.271 555.969 516.599 L 555.969 516.599 L 555.969 516.599 Q 556.203 517.927 556.32 518.435 L 556.32 518.435 L 556.32 518.435 Q 556.75 520.192 557.668 520.876 L 557.668 520.876 L 557.668 520.876 Q 558.586 521.56 560.109 521.56 L 560.109 521.56 L 560.109 521.56 Q 560.773 521.56 561.496 521.521 L 561.496 521.521 L 561.496 521.521 Q 562.219 521.481 562.57 521.481 L 562.57 521.481 L 562.57 521.481 Q 563.625 521.481 563.625 522.263 L 563.625 522.263 L 563.625 522.263 Q 563.625 522.888 563.039 523.083 L 563.039 523.083 L 563.039 523.083 Q 562.57 523.278 561.379 523.317 L 561.379 523.317 L 561.379 523.317 Q 560.188 523.356 558.605 523.396 L 558.605 523.396 L 558.605 523.396 Q 557.023 523.435 555.188 523.513 L 555.188 523.513 L 555.188 523.513 Q 553.352 523.591 551.633 523.786 L 551.633 523.786 L 551.633 523.786 Q 549.719 524.021 547.922 524.431 L 547.922 524.431 L 547.922 524.431 Q 546.125 524.841 544.602 525.212 L 544.602 525.212 L 544.602 525.212 Q 543.078 525.583 541.906 525.856 L 541.906 525.856 L 541.906 525.856 Q 540.734 526.13 540.031 526.13 L 540.031 526.13 L 540.031 526.13 Q 539.289 526.13 539.016 525.817 L 539.016 525.817 L 539.016 525.817 Q 538.742 525.505 538.742 525.153 L 538.742 525.153 L 538.742 525.153 Q 538.742 524.567 539.23 524.313 L 539.23 524.313 L 539.23 524.313 Q 539.719 524.06 540.578 523.786 L 540.578 523.786 L 540.578 523.786 Q 541.242 523.591 542.16 523.376 L 542.16 523.376 L 542.16 523.376 Q 543.078 523.161 544.328 522.614 L 544.328 522.614 L 544.328 522.614 Q 545.578 522.067 546.066 521.149 L 546.066 521.149 L 546.066 521.149 Q 546.555 520.231 546.555 518.356 L 546.555 518.356 L 546.555 518.356 Q 546.555 517.771 546.477 516.384 L 546.477 516.384 L 546.477 516.384 Q 546.398 514.997 546.262 513.083 L 546.262 513.083 L 546.262 513.083 Q 546.125 511.169 545.949 508.884 L 545.949 508.884 L 545.949 508.884 Q 545.773 506.599 545.578 504.196 L 545.578 504.196 L 545.578 504.196 Q 545.383 501.794 545.168 499.411 L 545.168 499.411 L 545.168 499.411 Q 544.953 497.028 544.758 494.938 L 544.758 494.938 L 544.758 494.938 Q 544.563 492.849 544.387 491.208 L 544.387 491.208 L 544.387 491.208 Q 544.211 489.567 544.094 488.591 L 544.094 488.591 L 544.094 488.591 Q 543.938 487.419 543.625 486.735 L 543.625 486.735 L 543.625 486.735 Q 543.313 486.052 542.883 485.7 L 542.883 485.7 L 542.883 485.7 Q 542.453 485.349 541.887 485.251 L 541.887 485.251 L 541.887 485.251 Q 541.32 485.153 540.656 485.153 L 540.656 485.153 L 539.055 485.153 L 539.055 485.153 Q 538.859 485.153 538.566 485.134 L 538.566 485.134 L 538.566 485.134 Q 538.273 485.114 538 485.017 L 538 485.017 L 538 485.017 Q 537.727 484.919 537.551 484.724 L 537.551 484.724 L 537.551 484.724 Q 537.375 484.528 537.375 484.216 L 537.375 484.216 L 537.375 484.216 Q 537.375 483.786 537.727 483.591 L 537.727 483.591 L 537.727 483.591 Q 538.078 483.396 538.586 483.317 L 538.586 483.317 L 538.586 483.317 Q 540.539 483.083 542.121 482.653 L 542.121 482.653 L 542.121 482.653 Q 543.703 482.224 545.227 481.091 L 545.227 481.091 L 545.227 481.091 Q 546.164 480.349 547.199 479.118 L 547.199 479.118 L 547.199 479.118 Q 548.234 477.888 548.898 476.521 L 548.898 476.521 L 548.898 476.521 Q 549.367 475.544 549.914 475.544 L 549.914 475.544 L 549.914 475.544 Q 550.422 475.544 550.539 475.935 L 550.539 475.935 L 550.539 475.935 Q 550.656 476.325 550.656 476.677 Z  M 600.891 505.817 L 600.891 505.817 L 600.891 505.817 Q 601.438 506.716 601.887 508.239 L 601.887 508.239 L 601.887 508.239 Q 602.336 509.763 602.336 511.325 L 602.336 511.325 L 602.336 511.325 Q 602.336 514.177 601.398 516.423 L 601.398 516.423 L 601.398 516.423 Q 600.461 518.669 598.703 520.212 L 598.703 520.212 L 598.703 520.212 Q 596.945 521.755 594.465 522.575 L 594.465 522.575 L 594.465 522.575 Q 591.984 523.396 588.898 523.396 L 588.898 523.396 L 588.898 523.396 Q 584.445 523.396 580.949 521.892 L 580.949 521.892 L 580.949 521.892 Q 577.453 520.388 575.07 517.692 L 575.07 517.692 L 575.07 517.692 Q 572.688 514.997 571.438 511.267 L 571.438 511.267 L 571.438 511.267 Q 570.188 507.536 570.188 503.083 L 570.188 503.083 L 570.188 503.083 Q 570.188 499.06 571.047 495.778 L 571.047 495.778 L 571.047 495.778 Q 571.906 492.497 573.391 489.919 L 573.391 489.919 L 573.391 489.919 Q 574.875 487.341 576.828 485.427 L 576.828 485.427 L 576.828 485.427 Q 578.781 483.513 580.969 482.263 L 580.969 482.263 L 580.969 482.263 Q 583.156 481.013 585.422 480.407 L 585.422 480.407 L 585.422 480.407 Q 587.688 479.802 589.797 479.802 L 589.797 479.802 L 589.797 479.802 Q 591.867 479.802 594.094 480.349 L 594.094 480.349 L 594.094 480.349 Q 596.32 480.896 598.176 482.224 L 598.176 482.224 L 598.176 482.224 Q 600.031 483.552 601.223 485.72 L 601.223 485.72 L 601.223 485.72 Q 602.414 487.888 602.414 491.169 L 602.414 491.169 L 602.414 491.169 Q 602.414 494.021 601.574 496.169 L 601.574 496.169 L 601.574 496.169 Q 600.734 498.317 599.367 499.88 L 599.367 499.88 L 599.367 499.88 Q 598 501.442 596.262 502.458 L 596.262 502.458 L 596.262 502.458 Q 594.523 503.474 592.707 504.079 L 592.707 504.079 L 592.707 504.079 Q 590.891 504.685 589.152 504.919 L 589.152 504.919 L 589.152 504.919 Q 587.414 505.153 586.086 505.153 L 586.086 505.153 L 586.086 505.153 Q 584.172 505.153 582.355 504.88 L 582.355 504.88 L 582.355 504.88 Q 580.539 504.606 579.523 504.294 L 579.523 504.294 L 579.523 504.294 Q 579.68 507.341 580.48 510.173 L 580.48 510.173 L 580.48 510.173 Q 581.281 513.005 582.766 515.153 L 582.766 515.153 L 582.766 515.153 Q 584.25 517.302 586.457 518.591 L 586.457 518.591 L 586.457 518.591 Q 588.664 519.88 591.633 519.88 L 591.633 519.88 L 591.633 519.88 Q 593.703 519.88 595.207 519.177 L 595.207 519.177 L 595.207 519.177 Q 596.711 518.474 597.688 517.282 L 597.688 517.282 L 597.688 517.282 Q 598.664 516.091 599.133 514.528 L 599.133 514.528 L 599.133 514.528 Q 599.602 512.966 599.602 511.247 L 599.602 511.247 L 599.602 511.247 Q 599.602 510.231 599.465 509.138 L 599.465 509.138 L 599.465 509.138 Q 599.328 508.044 598.977 507.067 L 598.977 507.067 L 598.977 507.067 Q 598.742 506.481 598.586 505.974 L 598.586 505.974 L 598.586 505.974 Q 598.43 505.466 598.43 505.153 L 598.43 505.153 L 598.43 505.153 Q 598.43 504.372 599.133 504.372 L 599.133 504.372 L 599.133 504.372 Q 599.484 504.372 599.973 504.724 L 599.973 504.724 L 599.973 504.724 Q 600.461 505.075 600.891 505.817 Z  M 579.367 501.716 L 579.367 501.716 L 579.367 501.716 Q 580.383 502.028 581.672 502.243 L 581.672 502.243 L 581.672 502.243 Q 582.961 502.458 584.914 502.458 L 584.914 502.458 L 584.914 502.458 Q 587.18 502.458 589.094 501.599 L 589.094 501.599 L 589.094 501.599 Q 591.008 500.739 592.375 499.196 L 592.375 499.196 L 592.375 499.196 Q 593.742 497.653 594.523 495.466 L 594.523 495.466 L 594.523 495.466 Q 595.305 493.278 595.305 490.583 L 595.305 490.583 L 595.305 490.583 Q 595.305 488.2 594.777 486.579 L 594.777 486.579 L 594.777 486.579 Q 594.25 484.958 593.391 483.981 L 593.391 483.981 L 593.391 483.981 Q 592.531 483.005 591.418 482.595 L 591.418 482.595 L 591.418 482.595 Q 590.305 482.185 589.133 482.185 L 589.133 482.185 L 589.133 482.185 Q 587.648 482.185 585.93 483.083 L 585.93 483.083 L 585.93 483.083 Q 584.211 483.981 582.746 486.208 L 582.746 486.208 L 582.746 486.208 Q 581.281 488.435 580.324 492.204 L 580.324 492.204 L 580.324 492.204 Q 579.367 495.974 579.367 501.716 Z  M 630.031 492.106 L 630.031 492.106 L 630.031 492.106 Q 628.781 492.106 627.707 491.716 L 627.707 491.716 L 627.707 491.716 Q 626.633 491.325 625.852 490.524 L 625.852 490.524 L 625.852 490.524 Q 625.07 489.724 624.621 488.493 L 624.621 488.493 L 624.621 488.493 Q 624.172 487.263 624.172 485.622 L 624.172 485.622 L 624.172 485.622 Q 624.172 484.45 624.035 483.356 L 624.035 483.356 L 624.035 483.356 Q 623.898 482.263 623.469 481.403 L 623.469 481.403 L 623.469 481.403 Q 623.039 480.544 622.238 480.017 L 622.238 480.017 L 622.238 480.017 Q 621.438 479.489 620.109 479.489 L 620.109 479.489 L 620.109 479.489 Q 618.508 479.489 616.945 480.485 L 616.945 480.485 L 616.945 480.485 Q 615.383 481.481 614.133 483.474 L 614.133 483.474 L 614.133 483.474 Q 612.883 485.466 612.102 488.435 L 612.102 488.435 L 612.102 488.435 Q 611.32 491.403 611.32 495.31 L 611.32 495.31 L 611.32 495.31 Q 611.32 500.075 612.277 503.806 L 612.277 503.806 L 612.277 503.806 Q 613.234 507.536 615.051 510.134 L 615.051 510.134 L 615.051 510.134 Q 616.867 512.731 619.484 514.099 L 619.484 514.099 L 619.484 514.099 Q 622.102 515.466 625.383 515.466 L 625.383 515.466 L 625.383 515.466 Q 627.531 515.466 629.23 514.724 L 629.23 514.724 L 629.23 514.724 Q 630.93 513.981 632.063 512.731 L 632.063 512.731 L 632.063 512.731 Q 633.195 511.481 633.801 509.782 L 633.801 509.782 L 633.801 509.782 Q 634.406 508.083 634.406 506.208 L 634.406 506.208 L 634.406 506.208 Q 634.406 504.216 633.918 502.849 L 633.918 502.849 L 633.918 502.849 Q 633.43 501.481 632.863 500.524 L 632.863 500.524 L 632.863 500.524 Q 632.297 499.567 631.809 498.923 L 631.809 498.923 L 631.809 498.923 Q 631.32 498.278 631.32 497.81 L 631.32 497.81 L 631.32 497.81 Q 631.32 497.224 631.945 497.224 L 631.945 497.224 L 631.945 497.224 Q 632.531 497.224 633.449 497.849 L 633.449 497.849 L 633.449 497.849 Q 634.367 498.474 635.246 499.665 L 635.246 499.665 L 635.246 499.665 Q 636.125 500.856 636.75 502.575 L 636.75 502.575 L 636.75 502.575 Q 637.375 504.294 637.375 506.442 L 637.375 506.442 L 637.375 506.442 Q 637.375 509.958 636.223 512.673 L 636.223 512.673 L 636.223 512.673 Q 635.07 515.388 633.039 517.243 L 633.039 517.243 L 633.039 517.243 Q 631.008 519.099 628.195 520.056 L 628.195 520.056 L 628.195 520.056 Q 625.383 521.013 622.102 521.013 L 622.102 521.013 L 622.102 521.013 Q 618.273 521.013 615.109 519.567 L 615.109 519.567 L 615.109 519.567 Q 611.945 518.122 609.66 515.407 L 609.66 515.407 L 609.66 515.407 Q 607.375 512.692 606.105 508.806 L 606.105 508.806 L 606.105 508.806 Q 604.836 504.919 604.836 500.036 L 604.836 500.036 L 604.836 500.036 Q 604.836 497.692 605.266 495.388 L 605.266 495.388 L 605.266 495.388 Q 605.695 493.083 606.438 490.993 L 606.438 490.993 L 606.438 490.993 Q 607.18 488.903 608.156 487.106 L 608.156 487.106 L 608.156 487.106 Q 609.133 485.31 610.266 483.942 L 610.266 483.942 L 610.266 483.942 Q 611.945 481.911 613.703 480.524 L 613.703 480.524 L 613.703 480.524 Q 615.461 479.138 617.277 478.298 L 617.277 478.298 L 617.277 478.298 Q 619.094 477.458 621.027 477.106 L 621.027 477.106 L 621.027 477.106 Q 622.961 476.755 624.992 476.755 L 624.992 476.755 L 624.992 476.755 Q 627.219 476.755 629.172 477.38 L 629.172 477.38 L 629.172 477.38 Q 631.125 478.005 632.551 479.138 L 632.551 479.138 L 632.551 479.138 Q 633.977 480.271 634.797 481.853 L 634.797 481.853 L 634.797 481.853 Q 635.617 483.435 635.617 485.388 L 635.617 485.388 L 635.617 485.388 Q 635.617 487.263 635.109 488.532 L 635.109 488.532 L 635.109 488.532 Q 634.602 489.802 633.781 490.603 L 633.781 490.603 L 633.781 490.603 Q 632.961 491.403 631.965 491.755 L 631.965 491.755 L 631.965 491.755 Q 630.969 492.106 630.031 492.106 Z  M 650.813 535.231 L 650.813 535.231 L 650.813 535.231 Q 648.82 535.231 646.75 535.388 L 646.75 535.388 L 646.75 535.388 Q 644.68 535.544 642.785 535.759 L 642.785 535.759 L 642.785 535.759 Q 640.891 535.974 639.328 536.13 L 639.328 536.13 L 639.328 536.13 Q 637.766 536.286 636.75 536.286 L 636.75 536.286 L 636.75 536.286 Q 635.969 536.286 635.676 536.013 L 635.676 536.013 L 635.676 536.013 Q 635.383 535.739 635.383 535.31 L 635.383 535.31 L 635.383 535.31 Q 635.383 534.372 636.75 534.372 L 636.75 534.372 L 636.75 534.372 Q 638.43 534.372 639.563 534.118 L 639.563 534.118 L 639.563 534.118 Q 640.695 533.864 641.555 533.552 L 641.555 533.552 L 641.555 533.552 Q 643.313 532.888 644.289 531.599 L 644.289 531.599 L 644.289 531.599 Q 645.266 530.31 645.695 528.708 L 645.695 528.708 L 645.695 528.708 Q 646.125 527.106 646.203 525.31 L 646.203 525.31 L 646.203 525.31 Q 646.281 523.513 646.281 521.872 L 646.281 521.872 L 646.281 521.872 Q 646.281 519.606 646.262 516.892 L 646.262 516.892 L 646.262 516.892 Q 646.242 514.177 646.184 511.267 L 646.184 511.267 L 646.184 511.267 Q 646.125 508.356 646.086 505.407 L 646.086 505.407 L 646.086 505.407 Q 646.047 502.458 645.988 499.704 L 645.988 499.704 L 645.988 499.704 Q 645.93 496.95 645.871 494.548 L 645.871 494.548 L 645.871 494.548 Q 645.813 492.146 645.773 490.349 L 645.773 490.349 L 645.773 490.349 Q 645.734 488.083 645.695 485.427 L 645.695 485.427 L 645.695 485.427 Q 645.656 482.771 645.598 480.017 L 645.598 480.017 L 645.598 480.017 Q 645.539 477.263 645.48 474.528 L 645.48 474.528 L 645.48 474.528 Q 645.422 471.794 645.324 469.411 L 645.324 469.411 L 645.324 469.411 Q 645.227 467.028 645.109 465.134 L 645.109 465.134 L 645.109 465.134 Q 644.992 463.239 644.836 462.106 L 644.836 462.106 L 644.836 462.106 Q 644.602 460.505 644.016 459.528 L 644.016 459.528 L 644.016 459.528 Q 643.43 458.552 642.668 458.024 L 642.668 458.024 L 642.668 458.024 Q 641.906 457.497 640.988 457.321 L 640.988 457.321 L 640.988 457.321 Q 640.07 457.146 639.133 457.146 L 639.133 457.146 L 639.133 457.146 Q 637.766 457.146 636.242 457.36 L 636.242 457.36 L 636.242 457.36 Q 634.719 457.575 633.469 457.575 L 633.469 457.575 L 633.469 457.575 Q 632.453 457.575 632.004 457.321 L 632.004 457.321 L 632.004 457.321 Q 631.555 457.067 631.555 456.521 L 631.555 456.521 L 631.555 456.521 Q 631.555 456.052 631.906 455.778 L 631.906 455.778 L 631.906 455.778 Q 632.258 455.505 632.727 455.388 L 632.727 455.388 L 632.727 455.388 Q 634.758 454.958 636.457 454.528 L 636.457 454.528 L 636.457 454.528 Q 638.156 454.099 639.602 453.61 L 639.602 453.61 L 639.602 453.61 Q 641.047 453.122 642.316 452.536 L 642.316 452.536 L 642.316 452.536 Q 643.586 451.95 644.836 451.169 L 644.836 451.169 L 644.836 451.169 Q 646.203 450.31 647.16 449.372 L 647.16 449.372 L 647.16 449.372 Q 648.117 448.435 648.801 447.692 L 648.801 447.692 L 648.801 447.692 Q 649.484 446.95 649.973 446.462 L 649.973 446.462 L 649.973 446.462 Q 650.461 445.974 650.891 445.974 L 650.891 445.974 L 650.891 445.974 Q 651.438 445.974 651.613 446.501 L 651.613 446.501 L 651.613 446.501 Q 651.789 447.028 651.789 447.575 L 651.789 447.575 L 651.789 447.575 Q 651.789 448.2 651.75 449.235 L 651.75 449.235 L 651.75 449.235 Q 651.711 450.271 651.672 451.481 L 651.672 451.481 L 651.672 451.481 Q 651.633 452.692 651.594 453.923 L 651.594 453.923 L 651.594 453.923 Q 651.555 455.153 651.555 456.13 L 651.555 456.13 L 651.555 456.13 Q 651.555 457.653 651.613 460.31 L 651.613 460.31 L 651.613 460.31 Q 651.672 462.966 651.77 466.306 L 651.77 466.306 L 651.77 466.306 Q 651.867 469.646 651.984 473.435 L 651.984 473.435 L 651.984 473.435 Q 652.102 477.224 652.238 481.013 L 652.238 481.013 L 652.238 481.013 Q 652.375 484.802 652.512 488.376 L 652.512 488.376 L 652.512 488.376 Q 652.648 491.95 652.785 494.86 L 652.785 494.86 L 652.785 494.86 Q 652.922 497.771 653.039 499.782 L 653.039 499.782 L 653.039 499.782 Q 653.156 501.794 653.234 502.458 L 653.234 502.458 L 653.234 502.458 Q 654.797 500.817 656.008 499.606 L 656.008 499.606 L 656.008 499.606 Q 657.219 498.396 658.234 497.282 L 658.234 497.282 L 658.234 497.282 Q 659.25 496.169 660.246 495.017 L 660.246 495.017 L 660.246 495.017 Q 661.242 493.864 662.414 492.38 L 662.414 492.38 L 662.414 492.38 Q 663.078 491.481 663.391 490.739 L 663.391 490.739 L 663.391 490.739 Q 663.703 489.997 663.703 489.333 L 663.703 489.333 L 663.703 489.333 Q 663.703 487.771 662.023 486.911 L 662.023 486.911 L 658.82 485.388 L 658.82 485.388 Q 658.039 484.958 658.039 484.294 L 658.039 484.294 L 658.039 484.294 Q 658.039 483.903 658.234 483.61 L 658.234 483.61 L 658.234 483.61 Q 658.43 483.317 658.977 483.317 L 658.977 483.317 L 658.977 483.317 Q 659.445 483.317 660.031 483.63 L 660.031 483.63 L 660.031 483.63 Q 660.617 483.942 661.555 484.372 L 661.555 484.372 L 661.555 484.372 Q 662.492 484.802 663.82 485.31 L 663.82 485.31 L 663.82 485.31 Q 665.148 485.817 667.063 486.208 L 667.063 486.208 L 667.063 486.208 Q 667.805 486.364 668.84 486.481 L 668.84 486.481 L 668.84 486.481 Q 669.875 486.599 670.969 486.696 L 670.969 486.696 L 670.969 486.696 Q 672.063 486.794 673.098 486.853 L 673.098 486.853 L 673.098 486.853 Q 674.133 486.911 674.836 486.911 L 674.836 486.911 L 674.836 486.911 Q 675.656 486.911 676.125 487.126 L 676.125 487.126 L 676.125 487.126 Q 676.594 487.341 676.594 487.888 L 676.594 487.888 L 676.594 487.888 Q 676.594 488.317 676.164 488.61 L 676.164 488.61 L 676.164 488.61 Q 675.734 488.903 674.68 488.903 L 674.68 488.903 L 674.68 488.903 Q 673.664 488.903 672.668 488.981 L 672.668 488.981 L 672.668 488.981 Q 671.672 489.06 670.695 489.294 L 670.695 489.294 L 670.695 489.294 Q 669.719 489.528 668.742 489.997 L 668.742 489.997 L 668.742 489.997 Q 667.766 490.466 666.75 491.247 L 666.75 491.247 L 666.75 491.247 Q 666.125 491.716 665.285 492.478 L 665.285 492.478 L 665.285 492.478 Q 664.445 493.239 663.605 494.118 L 663.605 494.118 L 663.605 494.118 Q 662.766 494.997 661.984 495.915 L 661.984 495.915 L 661.984 495.915 Q 661.203 496.833 660.656 497.653 L 660.656 497.653 L 660.656 497.653 Q 660.773 498.513 661.223 500.407 L 661.223 500.407 L 661.223 500.407 Q 661.672 502.302 662.453 504.665 L 662.453 504.665 L 662.453 504.665 Q 663.234 507.028 664.387 509.548 L 664.387 509.548 L 664.387 509.548 Q 665.539 512.067 667.023 514.138 L 667.023 514.138 L 667.023 514.138 Q 668.508 516.208 670.383 517.556 L 670.383 517.556 L 670.383 517.556 Q 672.258 518.903 674.484 518.903 L 674.484 518.903 L 674.484 518.903 Q 676.555 518.903 677.805 517.419 L 677.805 517.419 L 677.805 517.419 Q 679.055 515.935 679.055 513.474 L 679.055 513.474 L 679.055 513.474 Q 679.055 512.419 678.781 511.423 L 678.781 511.423 L 678.781 511.423 Q 678.508 510.427 678.078 509.528 L 678.078 509.528 L 678.078 509.528 Q 677.648 508.63 677.063 507.868 L 677.063 507.868 L 677.063 507.868 Q 676.477 507.106 675.852 506.521 L 675.852 506.521 L 675.852 506.521 Q 675.383 506.052 674.895 505.681 L 674.895 505.681 L 674.895 505.681 Q 674.406 505.31 674.406 505.075 L 674.406 505.075 L 674.406 505.075 Q 674.406 504.763 674.836 504.763 L 674.836 504.763 L 674.836 504.763 Q 675.305 504.763 676.145 505.251 L 676.145 505.251 L 676.145 505.251 Q 676.984 505.739 677.688 506.364 L 677.688 506.364 L 677.688 506.364 Q 678.469 506.989 679.191 507.868 L 679.191 507.868 L 679.191 507.868 Q 679.914 508.747 680.48 509.88 L 680.48 509.88 L 680.48 509.88 Q 681.047 511.013 681.379 512.399 L 681.379 512.399 L 681.379 512.399 Q 681.711 513.786 681.711 515.466 L 681.711 515.466 L 681.711 515.466 Q 681.711 516.677 681.34 518.317 L 681.34 518.317 L 681.34 518.317 Q 680.969 519.958 680.012 521.462 L 680.012 521.462 L 680.012 521.462 Q 679.055 522.966 677.336 524.021 L 677.336 524.021 L 677.336 524.021 Q 675.617 525.075 672.922 525.075 L 672.922 525.075 L 672.922 525.075 Q 669.289 525.075 666.457 523.376 L 666.457 523.376 L 666.457 523.376 Q 663.625 521.677 661.457 518.747 L 661.457 518.747 L 661.457 518.747 Q 659.289 515.817 657.727 511.911 L 657.727 511.911 L 657.727 511.911 Q 656.164 508.005 655.07 503.63 L 655.07 503.63 L 653.469 505.388 L 653.469 505.388 Q 653.547 507.302 653.684 509.528 L 653.684 509.528 L 653.684 509.528 Q 653.82 511.755 654.016 514.001 L 654.016 514.001 L 654.016 514.001 Q 654.211 516.247 654.406 518.396 L 654.406 518.396 L 654.406 518.396 Q 654.602 520.544 654.777 522.341 L 654.777 522.341 L 654.777 522.341 Q 654.953 524.138 655.109 525.446 L 655.109 525.446 L 655.109 525.446 Q 655.266 526.755 655.383 527.302 L 655.383 527.302 L 655.383 527.302 Q 655.617 528.591 655.988 529.606 L 655.988 529.606 L 655.988 529.606 Q 656.359 530.622 656.984 531.325 L 656.984 531.325 L 656.984 531.325 Q 657.609 532.028 658.586 532.399 L 658.586 532.399 L 658.586 532.399 Q 659.563 532.771 661.047 532.771 L 661.047 532.771 L 661.047 532.771 Q 661.711 532.771 662.473 532.731 L 662.473 532.731 L 662.473 532.731 Q 663.234 532.692 663.938 532.692 L 663.938 532.692 L 663.938 532.692 Q 664.445 532.692 664.953 532.751 L 664.953 532.751 L 664.953 532.751 Q 665.461 532.81 665.852 532.966 L 665.852 532.966 L 665.852 532.966 Q 666.242 533.122 666.496 533.396 L 666.496 533.396 L 666.496 533.396 Q 666.75 533.669 666.75 534.138 L 666.75 534.138 L 666.75 534.138 Q 666.75 534.841 666.027 535.368 L 666.027 535.368 L 666.027 535.368 Q 665.305 535.896 663.156 535.896 L 663.156 535.896 L 663.156 535.896 Q 662.063 535.896 660.988 535.798 L 660.988 535.798 L 660.988 535.798 Q 659.914 535.7 658.527 535.563 L 658.527 535.563 L 658.527 535.563 Q 657.141 535.427 655.285 535.329 L 655.285 535.329 L 655.285 535.329 Q 653.43 535.231 650.813 535.231 Z " fill="rgb(255,255,255)"/></g></svg>
