<?xml version="1.0" encoding="UTF-8" standalone="no"?>
<svg
   width="1500.099mm"
   height="283.16086mm"
   viewBox="124.179 49.706 1059.0031 167.98858"
   version="1.1"
   id="svg2835"
   sodipodi:docname="THEGA-logo-and-name-horizontal-fg-black-191919-bg-transparent.svg"
   inkscape:version="1.4.2 (ebf0e940d0, 2025-05-08)"
   inkscape:export-filename="THEGA-logo-and-slogan-fg-white-bg-transparent.png"
   inkscape:export-xdpi="150"
   inkscape:export-ydpi="150"
   xmlns:inkscape="http://www.inkscape.org/namespaces/inkscape"
   xmlns:sodipodi="http://sodipodi.sourceforge.net/DTD/sodipodi-0.dtd"
   xmlns="http://www.w3.org/2000/svg"
   xmlns:svg="http://www.w3.org/2000/svg">
  <defs
     id="defs3">
    <rect
       x="247.56239"
       y="31.781658"
       width="627.26959"
       height="163.92645"
       id="rect5" />
    <rect
       x="297.74396"
       y="73.599632"
       width="764.4325"
       height="224.14432"
       id="rect4" />
    <rect
       x="247.56239"
       y="31.781658"
       width="627.26959"
       height="163.92645"
       id="rect5-7" />
  </defs>
  <sodipodi:namedview
     id="namedview3"
     pagecolor="#ffffff"
     bordercolor="#000000"
     borderopacity="0.25098039"
     inkscape:showpageshadow="2"
     inkscape:pageopacity="0.0"
     inkscape:pagecheckerboard="true"
     inkscape:deskcolor="#ffffff"
     inkscape:document-units="mm"
     inkscape:zoom="0.10568225"
     inkscape:cx="3288.1586"
     inkscape:cy="2247.3026"
     inkscape:window-width="1920"
     inkscape:window-height="989"
     inkscape:window-x="1920"
     inkscape:window-y="0"
     inkscape:window-maximized="1"
     inkscape:current-layer="layer1"
     showgrid="false"
     showborder="true" />
  <g
     id="layer1"
     transform="translate(-95.5828,-81.238742)">
    <path
       d="m 479.95565,270.57866 v -100.2826 h -65.83204 v -11.66081 h 148.12213 v 11.66081 h -65.83208 v 100.2826 z m 107.14855,0 V 158.63525 h 16.45802 v 48.97521 h 120.69213 v -48.97521 h 16.45798 V 270.57866 H 724.25435 V 219.27122 H 603.56222 v 51.30744 z m 186.86702,0 V 158.63525 h 129.26404 v 11.66081 H 790.42922 v 37.3144 h 108.09147 v 11.66076 H 790.42922 v 39.64662 h 115.20614 v 11.66082 z m 148.12223,-54.51412 v -2.91522 q 0,-14.86747 1.71438,-24.92485 1.71429,-10.13027 5.9145,-16.47081 4.20028,-6.34056 11.40069,-9.69305 7.28606,-3.35247 18.25815,-4.51855 10.97192,-1.23899 26.40135,-1.23899 h 32.23018 q 20.2298,0 32.8304,1.31185 12.6863,1.31185 19.4583,5.02874 6.8574,3.71688 9.429,10.85911 2.5715,7.06934 2.5715,18.58432 h -16.4579 q 0,-8.67267 -1.8002,-13.48273 -1.8,-4.88296 -6.7718,-6.99646 -4.9717,-2.1864 -14.4864,-2.69656 -9.4291,-0.51015 -24.7729,-0.51015 h -32.23018 q -12.25775,0 -20.65829,0.65592 -8.40034,0.58302 -13.71496,2.8423 -5.22884,2.1864 -8.05759,6.99647 -2.74302,4.81006 -3.77158,13.11832 -1.02872,8.30831 -1.02872,21.13512 v 2.91522 q 0,12.38953 1.02872,20.55207 1.02856,8.1625 3.77158,13.04547 2.82875,4.88296 8.05759,7.288 5.31462,2.40505 13.71496,3.13385 8.40054,0.7288 20.65829,0.7288 h 37.97348 q 14.1436,0 22.8012,-0.94744 8.6576,-1.02032 13.115,-4.22705 4.5431,-3.2796 6.0861,-9.91168 1.5429,-6.70494 1.5429,-18.07416 v -4.29992 h -63.0034 v -11.66075 h 79.4613 v 15.96067 q 0,14.21153 -2.8287,23.10288 -2.8286,8.89136 -9.6005,13.77432 -6.686,4.8101 -18.3439,6.5592 -11.5719,1.82202 -29.23,1.82202 h -37.97348 q -19.28675,0 -31.71596,-2.25928 -12.42925,-2.18642 -19.4582,-8.16257 -6.94322,-5.97615 -9.77197,-17.19969 -2.74294,-11.22347 -2.74294,-29.22474 z m 181.12385,54.51412 76.8042,-111.94341 h 21.9439 l 76.7995,111.94341 h -19.2 l -16.4568,-25.65377 h -104.2317 l -16.4581,25.65377 z m 43.888,-37.31455 h 87.7746 l -43.8865,-65.30021 z"
       id="text4"
       style="font-size:120px;font-family:Michroma;-inkscape-font-specification:Michroma;white-space:pre;fill:#191919;stroke-width:1.34893;fill-opacity:1"
       aria-label="THEGA"
       inkscape:export-filename="THEGA-logo-and-slogan-fg-white-bg-transparent-horizontal-1500x283.png"
       inkscape:export-xdpi="150"
       inkscape:export-ydpi="150" />
    <path
       d="m 391.74977,135.65036 h -0.0173 v 90.40272 l -0.71812,6.78436 -0.46309,2.32194 -0.55385,2.41739 -0.61797,2.3689 -0.68216,2.32508 -0.74787,2.27658 -0.8042,2.22024 -0.86214,2.17331 -0.91845,2.11698 -0.41933,0.87308 -0.37707,0.65715 -2.63332,4.02431 -2.86177,3.92572 -3.06046,3.81151 -3.24666,3.71449 -3.40627,3.6034 -3.54393,3.48919 -3.6566,3.38278 -3.75987,3.2623 -3.8334,3.15592 -3.88818,3.03543 -3.92572,2.91653 -3.93825,2.79604 -3.93041,2.67869 -3.89757,2.55352 -3.84905,2.42835 -3.77866,2.30474 -3.68633,2.17331 -3.56739,2.04344 -3.11837,1.7352 -0.35673,0.16899 -2.16707,1.01233 -1.9699,0.91062 -1.76024,0.80111 -1.53649,0.69627 -1.2924,0.593 -1.0358,0.49286 -0.75573,0.38022 -0.35362,0.21122 -0.35831,-0.21122 -0.76041,-0.38022 -1.03268,-0.49286 -1.29084,-0.593 -1.53649,-0.69627 -1.76025,-0.80111 -1.9699,-0.91062 -2.16704,-1.01233 -0.35832,-0.16899 -3.11679,-1.7352 -3.56897,-2.04344 -3.68947,-2.17331 -3.77552,-2.30474 -3.84906,-2.42835 -3.90067,-2.55352 -3.9273,-2.67869 -3.93668,-2.79604 -3.92729,-2.91653 -3.88817,-3.03543 -3.83341,-3.15592 -3.7583,-3.2623 -3.65817,-3.38278 -3.54395,-3.48919 -3.40468,-3.6034 -3.24824,-3.71449 -3.06048,-3.81151 -1.10667,-1.5877 c 4.25229,-0.95335 35.33987,-7.15916 41.62505,-8.44827 v -24.12046 c -6.95727,1.22108 -43.48863,8.58677 -51.64923,10.10445 -0.2378,-0.66149 -0.15537,-0.49565 -0.34541,-1.32676 l -0.46314,-2.32351 -0.4907,-4.64884 c 17.63604,-3.53657 35.31389,-6.64872 52.94896,-10.19037 v -22.95144 c -11.76968,2.34756 -40.69089,7.60973 -53.178,10.09583 v -69.49069 h -0.0157 v -4.18547 l 85.99667,-16.47427 85.99163,16.47427 z m -145.21861,13.72047 h -0.0282 v 32.05199 l 21.04778,-4.24335 v -0.0392 l 5.28852,-1.06553 v -5.55923 0 -12.41241 l 16.41012,-3.30456 v 120.43945 l 1.11403,0.69002 3.06829,1.8463 2.67714,1.5662 0.30512,0.15336 1.86036,0.91531 0.0861,0.0423 0.008,0.005 1.60221,0.77764 1.51146,0.72287 1.32059,0.63212 1.10932,0.53511 0.88562,0.44123 0.65557,0.34736 0.30513,0.19246 0.30352,-0.19246 0.65559,-0.34736 0.88403,-0.44123 1.11092,-0.53511 1.32058,-0.63212 1.51145,-0.72287 1.5975,-0.77764 0.009,-0.005 0.0892,-0.0423 1.86195,-0.91531 0.30511,-0.15336 2.67869,-1.5662 3.0683,-1.8463 1.10933,-0.69002 V 154.79862 l 16.41012,3.30454 v 12.41243 0 5.55923 l 5.29169,1.06553 v 0.0392 l 21.04776,4.24336 v -32.05205 h -0.0282 l 0.0282,-0.11577 -59.25355,-11.94146 -59.25514,11.94146 z"
       id="use100-7"
       style="fill:#191919;fill-opacity:1;stroke-width:0.643653"
       sodipodi:nodetypes="ccccccccccccccccccccccccccccccccccccccccccccccccccccccccccccccccccccccccccccccccccccccccccccccccccccccccccccccccccccccccccccccccccccccccc" />
  </g>
</svg>
